<svg width="24" height="24" viewBox="0 0 24 24" fill="none" xmlns="http://www.w3.org/2000/svg">
<path d="M20.0156 0.299988H3.98438C1.78387 0.299988 0 2.08385 0 4.28436V19.7156C0 21.9161 1.78387 23.7 3.98438 23.7H20.0156C22.2161 23.7 24 21.9161 24 19.7156V4.28436C24 2.08385 22.2161 0.299988 20.0156 0.299988Z" fill="#470137"/>
<path d="M12.6167 6.4538L9.62207 11.3965L12.826 16.6451C12.8465 16.6818 12.8523 16.725 12.8421 16.7658C12.8371 16.7833 12.8264 16.7876 12.81 16.7882L12.7918 16.788L12.7697 16.7874C12.7577 16.7873 12.7443 16.7879 12.7294 16.7904L10.4194 16.7903L10.374 16.7897C10.2495 16.7864 10.1598 16.7686 10.1051 16.6773C9.89024 16.2587 9.67557 15.8428 9.46109 15.4296C9.2731 15.0681 9.07498 14.7004 8.86673 14.3264L8.77686 14.1657C8.53535 13.7365 8.29654 13.3018 8.0604 12.8616H8.04429C7.82944 13.291 7.60672 13.7203 7.37612 14.1496C7.14522 14.579 6.91714 15.0057 6.6919 15.4296C6.46651 15.8537 6.23574 16.275 5.99961 16.6934C5.96166 16.7786 5.89861 16.7964 5.81067 16.7994L5.77417 16.8H3.56851L3.55897 16.8002L3.52741 16.8031C3.5099 16.8041 3.49944 16.8004 3.49605 16.7739C3.48999 16.7346 3.49859 16.6945 3.52022 16.6612L6.62749 11.5575L3.60069 6.43769C3.56851 6.39494 3.56314 6.36006 3.58457 6.33305C3.60867 6.3052 3.64446 6.29029 3.6812 6.29279H5.95127C6.00077 6.29009 6.05026 6.29832 6.09619 6.31696C6.13469 6.33877 6.16772 6.36905 6.19278 6.40551C6.38599 6.83491 6.60065 7.26424 6.83677 7.6935C7.07276 8.12292 7.31158 8.54689 7.55323 8.9654C7.79473 9.384 8.01745 9.80797 8.22139 10.2373H8.2375C8.45205 9.79731 8.6694 9.36798 8.88955 8.94931C9.10943 8.53071 9.33482 8.10942 9.56573 7.68544C9.79644 7.26157 10.0192 6.84029 10.2339 6.4216C10.2462 6.38187 10.2684 6.34588 10.2983 6.31696C10.338 6.29678 10.3827 6.28839 10.4271 6.29279H12.5362C12.5781 6.28245 12.6215 6.30252 12.6408 6.3411C12.6584 6.37618 12.6517 6.41805 12.6252 6.44589L12.6167 6.4538ZM17.3483 16.9981L17.2372 16.9993C16.4962 17.0106 15.7619 16.8566 15.0878 16.5485C14.4599 16.2579 13.935 15.7835 13.5825 15.1881C13.2271 14.5977 13.0447 13.8623 13.0355 12.9816L13.0351 12.9099C13.0291 12.171 13.2179 11.4435 13.5825 10.8008C13.9477 10.1643 14.48 9.64035 15.1212 9.28522L15.1764 9.25519C15.874 8.86879 16.7165 8.6756 17.7041 8.6756L17.7473 8.67611L17.7966 8.67762L17.852 8.68014L17.9134 8.68366L18.0167 8.69094L18.1337 8.70035L18.2193 8.70781V5.53611C18.2193 5.46113 18.2515 5.42341 18.3159 5.42341H20.3445C20.3711 5.4196 20.3979 5.42855 20.4169 5.44754C20.436 5.46654 20.4449 5.49338 20.4411 5.51999V15.0351C20.4411 15.1949 20.4473 15.3669 20.4596 15.5511L20.4896 15.9688L20.5055 16.2104C20.5096 16.2788 20.4712 16.3428 20.4089 16.3714C19.8856 16.5897 19.3405 16.7516 18.7828 16.8544C18.3094 16.9418 17.8295 16.9898 17.3483 16.9981ZM18.2193 15.0029V10.6076C18.1323 10.584 18.0434 10.5679 17.9537 10.5593C17.844 10.5483 17.7338 10.5429 17.6236 10.5432C17.2329 10.5393 16.8468 10.6276 16.4966 10.8008C16.1555 10.9704 15.8643 11.2255 15.6514 11.5414C15.4388 11.8523 15.3289 12.2582 15.3217 12.7593L15.3213 12.8133C15.3135 13.1643 15.3708 13.5136 15.4903 13.8437C15.5876 14.1096 15.7414 14.3513 15.9412 14.5521C16.1324 14.7368 16.3638 14.8746 16.6173 14.9546C16.8851 15.0413 17.165 15.0848 17.4465 15.0835C17.5967 15.0835 17.7362 15.078 17.8651 15.0673C17.9679 15.0596 18.0699 15.0426 18.1696 15.0166L18.2193 15.0029Z" fill="#FF61F6"/>
</svg>
