<svg width="24" height="24" viewBox="0 0 24 24" fill="none" xmlns="http://www.w3.org/2000/svg">
<path d="M20.0156 0.299988H3.98438C1.78387 0.299988 0 2.08385 0 4.28436V19.7156C0 21.9161 1.78387 23.7 3.98438 23.7H20.0156C22.2161 23.7 24 21.9161 24 19.7156V4.28436C24 2.08385 22.2161 0.299988 20.0156 0.299988Z" fill="#001E36"/>
<path d="M5.40416 16.7095V6.42164C5.40416 6.34666 5.43639 6.30894 5.50079 6.30894L5.60268 6.30863L5.77686 6.30671L6.01897 6.30195L6.82992 6.28479L7.69936 6.26868C8.00522 6.2634 8.30842 6.26062 8.60898 6.26062C9.42455 6.26062 10.1115 6.36259 10.6698 6.56653C11.1734 6.73688 11.6326 7.01738 12.0142 7.38762C12.3375 7.70854 12.5875 8.0958 12.7467 8.52268C12.8973 8.93812 12.9736 9.37683 12.9722 9.81873C12.9722 10.6776 12.7735 11.386 12.3764 11.9439C11.9878 12.4886 11.4458 12.9048 10.8202 13.1398L10.7664 13.1595C10.1127 13.4034 9.38878 13.4915 8.59479 13.4971L8.47144 13.4973L8.28838 13.4964L8.19595 13.4951L8.09301 13.4927L8.03104 13.4902L7.99332 13.4883L7.9006 13.4849L7.78726 13.4826L7.61661 13.4813C7.60416 13.4813 7.59149 13.4813 7.57861 13.4813V16.6934C7.58431 16.7333 7.57088 16.7736 7.54237 16.8021C7.51386 16.8306 7.4736 16.844 7.43369 16.8383H5.51685C5.44166 16.8383 5.40416 16.7956 5.40416 16.7095ZM7.57861 8.24093V11.5964C7.71796 11.6072 7.84675 11.6126 7.96498 11.6125H8.49628C8.86277 11.6113 9.227 11.5567 9.57753 11.4506L9.64745 11.4287C9.96642 11.334 10.2514 11.1496 10.4685 10.8974C10.6704 10.6595 10.7749 10.3316 10.7821 9.91383L10.7825 9.86704C10.791 9.55561 10.71 9.24828 10.549 8.98152C10.3798 8.72359 10.1353 8.52403 9.84867 8.40999C9.47444 8.26452 9.07469 8.19607 8.67338 8.20875L8.46919 8.20934L8.3404 8.2104L8.21745 8.212L8.04403 8.21538L7.91753 8.21897L7.85171 8.2214L7.76385 8.22549L7.68905 8.23011L7.64643 8.23348L7.60962 8.23708C7.60397 8.2377 7.59856 8.23833 7.59339 8.23897L7.57861 8.24093ZM19.1971 10.9863C18.9161 10.8419 18.6182 10.7336 18.3104 10.6636L18.2391 10.6482C17.9003 10.5705 17.5545 10.5277 17.2071 10.5204L17.1202 10.5194C16.9165 10.5139 16.7131 10.5383 16.5164 10.5918C16.3913 10.6197 16.2801 10.691 16.2025 10.7931C16.15 10.8747 16.1221 10.9697 16.122 11.0668C16.1249 11.161 16.1589 11.2515 16.2186 11.3244C16.3041 11.4244 16.4068 11.5081 16.5218 11.5716L16.5567 11.59C16.7862 11.7137 17.0228 11.8239 17.2651 11.9201C17.8054 12.101 18.3217 12.347 18.8026 12.6526C19.1302 12.8594 19.4013 13.1443 19.5915 13.4818C19.7515 13.8013 19.8316 14.1549 19.825 14.5122C19.8346 14.984 19.6998 15.4474 19.4386 15.8405C19.159 16.2394 18.7705 16.5495 18.3196 16.734C17.8474 16.9414 17.2675 17.0486 16.5799 17.0556L16.5084 17.056C16.0821 17.0603 15.6565 17.023 15.2376 16.9446L15.1479 16.9272C14.7952 16.8625 14.4518 16.7544 14.1256 16.6052C14.0585 16.5706 14.0158 16.5027 14.0129 16.4281L14.0129 14.6732C14.0089 14.6385 14.0244 14.6045 14.0532 14.5846C14.0815 14.5686 14.1167 14.5718 14.1417 14.5927C14.5269 14.8198 14.9451 14.9855 15.3814 15.0837C15.7659 15.1801 16.1603 15.2314 16.5567 15.2367C16.9323 15.2367 17.2087 15.1884 17.3858 15.0918C17.5493 15.017 17.6534 14.853 17.6515 14.6732C17.6515 14.5338 17.571 14.3997 17.41 14.2707C17.3425 14.2167 17.2457 14.158 17.1197 14.0945L17.0594 14.0649L16.995 14.0346C16.984 14.0295 16.9727 14.0243 16.9613 14.0192L16.8906 13.9879C16.8785 13.9826 16.8662 13.9773 16.8538 13.972L16.7769 13.9397C16.7637 13.9343 16.7504 13.9288 16.7369 13.9233L16.6538 13.89C16.6396 13.8844 16.6252 13.8787 16.6107 13.8731L16.5214 13.8388L16.4279 13.8038C15.9223 13.6278 15.443 13.3841 15.003 13.0793C14.6883 12.8604 14.4292 12.571 14.2463 12.234C14.088 11.9168 14.008 11.5662 14.0129 11.2117C14.012 10.7857 14.129 10.3678 14.351 10.0042C14.6041 9.60381 14.9675 9.28512 15.3975 9.08649C15.8697 8.85053 16.46 8.73247 17.1685 8.73229C17.5834 8.72896 17.998 8.75857 18.4082 8.82084C18.7053 8.85852 18.9957 8.93708 19.2713 9.05429C19.3156 9.06701 19.3513 9.0998 19.3679 9.14284C19.3787 9.18216 19.3842 9.22279 19.384 9.26359V10.8897C19.3862 10.9282 19.3678 10.965 19.3357 10.9863C19.292 11.008 19.2407 11.008 19.1971 10.9863Z" fill="#31A8FF"/>
</svg>
