<svg width="24" height="24" viewBox="0 0 24 24" fill="none" xmlns="http://www.w3.org/2000/svg">
<path d="M1.80826 19.5857C1.18812 19.5857 0.770828 20.0725 0.770828 20.6985C0.770828 21.3244 1.18812 21.8112 1.80826 21.8112C2.4284 21.8112 2.84569 21.3244 2.84569 20.6985C2.84569 20.0725 2.4284 19.5857 1.80826 19.5857ZM1.66916 18.896C2.16759 18.896 2.58488 19.151 2.78194 19.4292V18.9656H3.54697V22.4372H2.9616C2.86308 22.4372 2.78773 22.356 2.78773 22.2633V21.9735C2.59068 22.2517 2.17918 22.5067 1.67496 22.5067C0.724463 22.5067 0 21.6953 0 20.7043C0 19.7132 0.718667 18.896 1.66916 18.896ZM4.41632 18.9656H5.18136V19.435C5.39 19.0873 5.78411 18.896 6.23617 18.896C7.04178 18.896 7.56339 19.464 7.56339 20.3449V22.4372H6.97802C6.8795 22.4372 6.80415 22.356 6.80415 22.2633V20.4724C6.80415 19.9218 6.52596 19.5915 6.07969 19.5915C5.57546 19.5915 5.18136 19.9856 5.18136 20.7275V22.4372H4.59599C4.49746 22.4372 4.42212 22.356 4.42212 22.2633V18.9656H4.41632ZM9.9744 19.5857C9.35426 19.5857 8.93697 20.0725 8.93697 20.6985C8.93697 21.3244 9.35426 21.8112 9.9744 21.8112C10.5945 21.8112 11.0118 21.3244 11.0118 20.6985C11.0118 20.0725 10.5945 19.5857 9.9744 19.5857ZM9.83531 18.896C10.3337 18.896 10.751 19.151 10.9481 19.4292V17.2268H11.7131V22.4372H11.1277C11.0292 22.4372 10.9539 22.356 10.9539 22.2633V21.9735C10.7568 22.2517 10.3453 22.5067 9.8411 22.5067C8.89061 22.5067 8.16614 21.6953 8.16614 20.7043C8.16614 19.7132 8.88481 18.896 9.83531 18.896ZM12.5825 18.9656H13.3475V19.5857C13.4808 19.1916 13.8691 18.9308 14.2632 18.9308C14.3617 18.9308 14.4603 18.9366 14.5588 18.9598V19.7422C14.4255 19.7016 14.3154 19.6784 14.1763 19.6784C13.7416 19.6784 13.3417 20.0494 13.3417 20.739V22.4314H12.7563C12.6578 22.4314 12.5825 22.3502 12.5825 22.2575V18.9656ZM16.6163 21.7939C17.2248 21.7939 17.6595 21.3128 17.6595 20.6985C17.6595 20.0783 17.2306 19.6031 16.6163 19.6031C15.9961 19.6031 15.5673 20.0841 15.5673 20.6985C15.573 21.3186 16.0019 21.7939 16.6163 21.7939ZM16.6163 22.5067C15.5904 22.5067 14.7964 21.7069 14.7964 20.7043C14.7964 19.6958 15.5904 18.896 16.6163 18.896C17.6421 18.896 18.4361 19.6958 18.4361 20.7043C18.4361 21.7069 17.6479 22.5067 16.6163 22.5067ZM19.0563 18.9656H19.8213V22.4372H19.2359C19.1374 22.4372 19.0621 22.356 19.0621 22.2633V18.9656H19.0563ZM19.4388 18.2063C19.1606 18.2063 18.923 17.9745 18.923 17.6905C18.923 17.4123 19.1606 17.1863 19.4388 17.1863C19.7228 17.1863 19.943 17.4181 19.943 17.6905C19.943 17.9745 19.7228 18.2063 19.4388 18.2063ZM22.2613 19.5857C21.6411 19.5857 21.2239 20.0725 21.2239 20.6985C21.2239 21.3244 21.6411 21.8112 22.2613 21.8112C22.8814 21.8112 23.2987 21.3244 23.2987 20.6985C23.2929 20.0725 22.8814 19.5857 22.2613 19.5857ZM22.1222 18.896C22.6206 18.896 23.0379 19.151 23.235 19.4292V17.2268H24V22.4372H23.4146C23.3161 22.4372 23.2408 22.356 23.2408 22.2633V21.9735C23.0437 22.2517 22.6322 22.5067 22.128 22.5067C21.1775 22.5067 20.453 21.6953 20.453 20.7043C20.453 19.7132 21.1717 18.896 22.1222 18.896Z" fill="black"/>
<path d="M17.8797 5.57748L19.8793 2.11745C19.9952 1.9204 19.9256 1.66539 19.7286 1.54947C19.5315 1.43356 19.2765 1.50311 19.1606 1.70016L17.1379 5.20076C15.5904 4.49369 13.8517 4.09958 12.0029 4.09958C10.1483 4.09958 8.41536 4.49369 6.86791 5.20076L4.84521 1.70016C4.72929 1.50311 4.47428 1.43356 4.27723 1.54947C4.08017 1.66539 4.01063 1.9204 4.12654 2.11745L6.12606 5.57748C2.68341 7.4437 0.341946 10.9153 0 15.0129H23.9942C23.6523 10.9153 21.305 7.4437 17.8797 5.57748ZM6.4738 11.5934C5.92321 11.5934 5.47694 11.1472 5.47694 10.5966C5.47694 10.046 5.92321 9.5997 6.4738 9.5997C7.02439 9.5997 7.47066 10.046 7.47066 10.5966C7.47066 11.1472 7.02439 11.5934 6.4738 11.5934ZM17.5204 11.5934C16.9698 11.5934 16.5235 11.1472 16.5235 10.5966C16.5235 10.046 16.9698 9.5997 17.5204 9.5997C18.071 9.5997 18.5173 10.046 18.5173 10.5966C18.5173 11.1472 18.071 11.5934 17.5204 11.5934Z" fill="#3DDC84"/>
</svg>
