<svg width="24" height="24" viewBox="0 0 24 24" fill="none" xmlns="http://www.w3.org/2000/svg">
<path d="M11.8309 22.3309C17.5365 22.3309 22.1618 17.7056 22.1618 12C22.1618 6.29438 17.5365 1.66907 11.8309 1.66907C6.12531 1.66907 1.5 6.29438 1.5 12C1.5 17.7056 6.12531 22.3309 11.8309 22.3309Z" stroke="black" stroke-width="1.8" stroke-miterlimit="10"/>
<path d="M11.8309 17.9553C15.1199 17.9553 17.7862 15.289 17.7862 12C17.7862 8.711 15.1199 6.04474 11.8309 6.04474C8.5419 6.04474 5.87564 8.711 5.87564 12C5.87564 15.289 8.5419 17.9553 11.8309 17.9553Z" fill="#BE6700"/>
<path d="M22.5 5.59417C22.5 6.9922 21.3721 8.12016 19.974 8.12016C18.576 8.12016 17.448 6.9922 17.448 5.59417C17.448 4.19614 18.576 3.06818 19.974 3.06818C21.3607 3.06704 22.5 4.195 22.5 5.59417Z" fill="#BE6700"/>
</svg>
