<svg width="24" height="24" viewBox="0 0 24 24" fill="none" xmlns="http://www.w3.org/2000/svg">
<path d="M4.98488 2.44067C3.61546 2.44067 2.60217 3.63925 2.64753 4.93911C2.69105 6.18793 2.63451 7.80528 2.22732 9.12427C1.81892 10.4471 1.1282 11.2851 0 11.3927V12.6073C1.1282 12.7149 1.81892 13.5529 2.22732 14.8757C2.63451 16.1947 2.69105 17.8121 2.64753 19.0609C2.60217 20.3605 3.61546 21.5593 4.98508 21.5593H19.0169C20.3864 21.5593 21.3995 20.3607 21.3541 19.0609C21.3106 17.8121 21.3671 16.1947 21.7743 14.8757C22.1829 13.5529 22.8718 12.7149 24 12.6073V11.3927C22.8718 11.2851 22.1829 10.4471 21.7743 9.12427C21.3671 7.80549 21.3106 6.18793 21.3541 4.93911C21.3995 3.63945 20.3864 2.44067 19.0169 2.44067H4.98468H4.98488ZM16.2712 14.2094C16.2712 15.9993 14.9361 17.0847 12.7206 17.0847H8.94915C8.72449 17.0847 8.54237 16.9026 8.54237 16.678V7.32203C8.54237 7.09737 8.72449 6.91525 8.94915 6.91525H12.6991C14.5464 6.91525 15.7588 7.91593 15.7588 9.45234C15.7588 10.5307 14.9433 11.4962 13.9041 11.6652V11.7216C15.3187 11.8767 16.2712 12.8563 16.2712 14.2094ZM12.3094 8.20474H10.1589V11.2422H11.9701C13.3702 11.2422 14.1423 10.6784 14.1423 9.67057C14.1423 8.72623 13.4784 8.20474 12.3094 8.20474ZM10.1589 12.4475V15.7948H12.3885C13.8462 15.7948 14.6184 15.2099 14.6184 14.1106C14.6184 13.011 13.8246 12.4473 12.2947 12.4473H10.1589V12.4475Z" fill="#7E13F8"/>
</svg>
