<svg width="24" height="24" viewBox="0 0 24 24" fill="none" xmlns="http://www.w3.org/2000/svg">
<path d="M24 12C24 5.37258 18.6274 0 12 0C5.37258 0 0 5.37258 0 12C0 18.6274 5.37258 24 12 24C18.6274 24 24 18.6274 24 12Z" fill="#3FC8BF"/>
<path d="M6.49569 12.5122L14.6755 4.38874C14.8283 4.23698 15.0742 4.42166 14.9711 4.61072L11.9266 10.1907C11.8586 10.3151 11.9487 10.4669 12.0905 10.4669H17.3518C17.5213 10.4669 17.6031 10.6745 17.4792 10.7902L8.25947 19.3949C8.09416 19.5492 7.8481 19.3318 7.98082 19.1488L12.3452 13.1279C12.4347 13.0045 12.3466 12.8315 12.1941 12.8315H6.6273C6.46059 12.8315 6.37741 12.6297 6.49569 12.5122Z" fill="white"/>
</svg>
