<svg width="24" height="24" viewBox="0 0 24 24" fill="none" xmlns="http://www.w3.org/2000/svg">
<path d="M11.987 24L3.34488 21.6009L1.41901 0H22.581L20.6531 21.5975L11.987 24Z" fill="#264DE4"/>
<path d="M19.0026 20.2222L20.6501 1.76617H12V22.1636L19.0026 20.2222Z" fill="#2965F1"/>
<path d="M5.83405 9.77765L6.07149 12.4269H12V9.77765H5.83405Z" fill="#EBEBEB"/>
<path d="M5.35693 4.41547L5.59776 7.06475H12V4.41547H5.35693Z" fill="#EBEBEB"/>
<path d="M12 16.658L11.9884 16.6611L9.0379 15.8644L8.84929 13.7515H6.18985L6.56101 17.9112L11.9878 19.4178L12 19.4144V16.658Z" fill="#EBEBEB"/>
<path d="M18.149 9.77763L18.6273 4.41547H11.9908V7.06475H15.7239L15.4829 9.77763H11.9908V12.4269H15.2531L14.9456 15.8628L11.9908 16.6603V19.4165L17.422 17.9113L17.4618 17.4637L18.0844 10.489L18.149 9.77763Z" fill="white"/>
</svg>
