<svg width="24" height="24" viewBox="0 0 24 24" fill="none" xmlns="http://www.w3.org/2000/svg">
<path d="M11.3727 9.14191C11.569 8.85262 11.7838 8.81583 11.9581 8.81583C12.1324 8.81583 12.4228 8.85262 12.6191 9.14191C14.1662 11.2669 16.7199 15.4999 18.6037 18.6224C19.8321 20.6587 20.7756 22.2227 20.9692 22.4218C21.6959 23.169 22.6925 22.7033 23.2716 21.8558C23.8418 21.0214 24 20.4355 24 19.8105C24 19.3848 15.7402 4.02299 14.9083 2.74432C14.1084 1.51445 13.8478 1.2038 12.4786 1.2038H11.4541C10.089 1.2038 9.89169 1.51445 9.09165 2.74432C8.25988 4.02299 0 19.3848 0 19.8105C0 20.4355 0.158276 21.0214 0.728419 21.8558C1.30753 22.7033 2.30414 23.169 3.0308 22.4218C3.2244 22.2227 4.16793 20.6587 5.39639 18.6224C7.28013 15.4999 9.82563 11.2669 11.3727 9.14191Z" fill="#000020"/>
</svg>
