<svg width="24" height="24" viewBox="0 0 24 24" fill="none" xmlns="http://www.w3.org/2000/svg">
<path d="M14.7134 8.6687L12.3133 10.9035L10.0853 6.40763L11.2362 3.82258C11.5271 3.30693 12.0029 3.30012 12.2938 3.82258L14.7134 8.6687Z" fill="#FFA000"/>
<path d="M12.3142 10.9025L3.33612 19.2531L10.0862 6.40765L12.3142 10.9025Z" fill="#F57F17"/>
<path d="M17.3452 5.25085C17.7752 4.84125 18.2179 4.97941 18.3298 5.56121L20.6638 19.1403L12.9223 23.7879C12.6509 23.9397 11.9309 23.999 11.9309 23.999C11.9309 23.999 11.2761 23.9192 11.0251 23.7811L3.33612 19.2531L17.3452 5.25085Z" fill="#FFCA28"/>
<path d="M10.0862 6.40765L3.33612 19.2531L6.34439 0.477702C6.45725 -0.104104 6.78707 -0.163452 7.08478 0.352195L10.0862 6.40765Z" fill="#FFA000"/>
</svg>
