<svg width="24" height="24" viewBox="0 0 24 24" fill="none" xmlns="http://www.w3.org/2000/svg">
<path d="M23.5473 10.931L13.0686 0.453034C12.4655 -0.150523 11.4867 -0.150523 10.8829 0.453034L8.707 2.62895L11.4672 5.38919C12.1087 5.17247 12.8442 5.31783 13.3556 5.82922C13.8694 6.34377 14.0137 7.08557 13.7917 7.72916L16.4519 10.3893C17.0954 10.1676 17.838 10.3111 18.3521 10.8259C19.0704 11.544 19.0704 12.708 18.3521 13.4266C17.6334 14.1452 16.4695 14.1452 15.7506 13.4266C15.2102 12.8857 15.0767 12.092 15.3503 11.4263L12.8695 8.94549L12.8692 15.474C13.0443 15.5609 13.2097 15.6765 13.3556 15.8219C14.074 16.54 14.074 17.7039 13.3556 18.4231C12.637 19.1414 11.4725 19.1414 10.7549 18.4231C10.0366 17.7039 10.0366 16.54 10.7549 15.8219C10.9324 15.6447 11.1378 15.5106 11.3569 15.4206V8.8312C11.1378 8.74167 10.9327 8.60842 10.7549 8.42988C10.2106 7.88637 10.0798 7.08768 10.3586 6.41934L7.63788 3.69807L0.452865 10.8826C-0.150955 11.4866 -0.150955 12.4654 0.452865 13.069L10.9316 23.5472C11.5349 24.1508 12.5135 24.1508 13.1175 23.5472L23.5473 13.1177C24.1509 12.5139 24.1509 11.5346 23.5473 10.931Z" fill="#DE4C36"/>
</svg>
