<svg width="24" height="24" viewBox="0 0 24 24" fill="none" xmlns="http://www.w3.org/2000/svg">
<path d="M12 23.054L16.4191 9.45355H7.58092L12 23.054Z" fill="#E24329"/>
<path d="M12 23.0539L7.58092 9.45349H1.38771L12 23.0539Z" fill="#FC6D26"/>
<path d="M1.38772 9.45355L0.0448467 13.5866C-0.0776384 13.9635 0.0565119 14.3765 0.377192 14.6095L12 23.054L1.38772 9.45355Z" fill="#FCA326"/>
<path d="M1.38773 9.45357H7.58094L4.91932 1.26216C4.78243 0.840615 4.18613 0.840729 4.04923 1.26216L1.38773 9.45357Z" fill="#E24329"/>
<path d="M12 23.0539L16.4191 9.45349H22.6123L12 23.0539Z" fill="#FC6D26"/>
<path d="M22.6123 9.45355L23.9552 13.5866C24.0776 13.9635 23.9435 14.3765 23.6228 14.6095L12 23.054L22.6123 9.45355Z" fill="#FCA326"/>
<path d="M22.6123 9.45357H16.4191L19.0807 1.26216C19.2176 0.840615 19.8139 0.840729 19.9508 1.26216L22.6123 9.45357Z" fill="#E24329"/>
</svg>
