<svg width="24" height="24" viewBox="0 0 24 24" fill="none" xmlns="http://www.w3.org/2000/svg">
<path fill-rule="evenodd" clip-rule="evenodd" d="M12.0006 1.55206L21.0488 6.77602V17.2239L12.0006 22.4479L2.95242 17.2239V6.77602L12.0006 1.55206ZM3.96764 7.36216V15.0364L10.6138 3.52503L3.96764 7.36216ZM12.0006 3.15343L4.33924 16.4233H19.6619L12.0006 3.15343ZM18.6467 17.4385H5.35445L12.0006 21.2756L18.6467 17.4385ZM20.0335 15.0364L13.3874 3.52503L20.0335 7.36216V15.0364Z" fill="#E10098"/>
<path d="M12.0006 4.27644C13.1815 4.27644 14.1388 3.31913 14.1388 2.13822C14.1388 0.957314 13.1815 0 12.0006 0C10.8197 0 9.86237 0.957314 9.86237 2.13822C9.86237 3.31913 10.8197 4.27644 12.0006 4.27644Z" fill="#E10098"/>
<path d="M20.5412 9.20735C21.7221 9.20735 22.6794 8.25004 22.6794 7.06913C22.6794 5.88822 21.7221 4.93091 20.5412 4.93091C19.3603 4.93091 18.403 5.88822 18.403 7.06913C18.403 8.25004 19.3603 9.20735 20.5412 9.20735Z" fill="#E10098"/>
<path d="M20.5412 19.0691C21.7221 19.0691 22.6794 18.1118 22.6794 16.9309C22.6794 15.75 21.7221 14.7927 20.5412 14.7927C19.3603 14.7927 18.403 15.75 18.403 16.9309C18.403 18.1118 19.3603 19.0691 20.5412 19.0691Z" fill="#E10098"/>
<path d="M12.0006 24C13.1815 24 14.1388 23.0427 14.1388 21.8618C14.1388 20.6809 13.1815 19.7236 12.0006 19.7236C10.8197 19.7236 9.86237 20.6809 9.86237 21.8618C9.86237 23.0427 10.8197 24 12.0006 24Z" fill="#E10098"/>
<path d="M3.45884 19.0691C4.63975 19.0691 5.59706 18.1118 5.59706 16.9309C5.59706 15.75 4.63975 14.7927 3.45884 14.7927C2.27793 14.7927 1.32062 15.75 1.32062 16.9309C1.32062 18.1118 2.27793 19.0691 3.45884 19.0691Z" fill="#E10098"/>
<path d="M3.45884 9.20735C4.63975 9.20735 5.59706 8.25004 5.59706 7.06913C5.59706 5.88822 4.63975 4.93091 3.45884 4.93091C2.27793 4.93091 1.32062 5.88822 1.32062 7.06913C1.32062 8.25004 2.27793 9.20735 3.45884 9.20735Z" fill="#E10098"/>
</svg>
