<svg width="24" height="24" viewBox="0 0 24 24" fill="none" xmlns="http://www.w3.org/2000/svg">
<path d="M21.505 11.8166C21.505 10.5828 20.5049 9.58271 19.2711 9.58271C19.1917 9.58271 19.1134 9.58696 19.0363 9.59504L22.1045 0.545532H9.06543L12.1294 9.58718C12.0845 9.58445 12.0393 9.58271 11.9937 9.58271C10.7599 9.58271 9.75976 10.5828 9.75976 11.8166C9.75976 12.8139 10.4133 13.6581 11.3154 13.9454C10.8389 14.7707 10.2394 15.5139 9.55881 16.1561C8.63332 17.0292 7.57411 17.6912 6.42847 18.0992C5.06453 17.3985 4.4204 15.8402 5.00163 14.4739C5.06721 14.3196 5.13426 14.1632 5.19826 14.0075C6.18644 13.7769 6.92272 12.8911 6.92272 11.8326C6.92272 10.5989 5.92259 9.59875 4.68878 9.59875C3.45503 9.59875 2.45485 10.5989 2.45485 11.8326C2.45485 12.5892 2.83131 13.2575 3.40669 13.6616C2.85378 14.9205 2.04101 16.238 1.7878 17.765C1.48434 19.595 1.78682 21.5376 3.36959 22.6346C7.05574 25.1894 11.057 21.0508 15.2758 20.0104C16.8048 19.6334 18.4831 19.6942 19.8302 18.914C20.8418 18.328 21.5086 17.3571 21.6979 16.267C21.8849 15.1901 21.6123 14.1179 20.9854 13.2485C21.3097 12.8608 21.505 12.3616 21.505 11.8166Z" fill="#99425B"/>
<path d="M21.1604 16.1737C20.9961 17.1201 20.4116 17.9467 19.5567 18.4419C18.7599 18.9034 17.805 19.0411 16.794 19.1869C16.2524 19.265 15.6923 19.3458 15.1452 19.4807C13.6986 19.8374 12.2974 20.5335 10.9423 21.2065C8.23057 22.5535 5.88866 23.7166 3.68042 22.1862C2.06289 21.0651 2.13758 18.9909 2.32603 17.8543C2.50068 16.8012 2.97283 15.8314 3.42944 14.8935C3.50834 14.7313 3.58565 14.5722 3.66088 14.4144C3.8872 14.5048 4.12791 14.5665 4.37883 14.5945C3.91404 16.1285 4.64497 17.7964 6.17918 18.5845L6.38913 18.6924L6.61151 18.6132C7.82437 18.1813 8.94197 17.4882 9.93326 16.5529C10.574 15.9484 11.1249 15.2796 11.5777 14.565C11.7135 14.5854 11.8523 14.5962 11.9937 14.5962C13.4018 14.5962 14.5678 13.5435 14.7482 12.1839C15.3246 12.1628 15.9368 12.1627 16.5165 12.1837C16.6968 13.5434 17.8629 14.5962 19.2711 14.5962C19.8598 14.5962 20.4059 14.4117 20.8558 14.0982C21.1682 14.7376 21.2848 15.457 21.1604 16.1737ZM4.68878 10.1444C5.61979 10.1444 6.37713 10.9017 6.37713 11.8327C6.37713 12.1671 6.27903 12.4789 6.11055 12.7415C5.82984 13.1792 5.35294 13.4792 4.80478 13.5166C4.76642 13.5192 4.72779 13.521 4.68878 13.521C4.48135 13.521 4.28259 13.4832 4.09883 13.4145C3.72712 13.2754 3.41739 13.0087 3.22255 12.6681C3.08152 12.4216 3.00044 12.1365 3.00044 11.8327C3.00044 10.9017 3.75784 10.1444 4.68878 10.1444ZM10.3054 11.8167C10.3054 10.9708 10.9306 10.2685 11.7431 10.147C11.8249 10.1347 11.9086 10.1283 11.9937 10.1283C12.5349 10.1283 13.0168 10.3847 13.3259 10.782C13.4027 10.8807 13.4693 10.9878 13.5229 11.1022C13.6248 11.3193 13.682 11.5614 13.682 11.8167C13.682 11.9516 13.6657 12.0828 13.6356 12.2087C13.4711 12.8975 12.8837 13.424 12.164 13.4964C12.1081 13.5021 12.0512 13.505 11.9937 13.505C11.6566 13.505 11.3426 13.4053 11.0787 13.2344C10.6138 12.9333 10.3054 12.4105 10.3054 11.8167ZM17.3519 9.80903C16.9902 10.1551 16.7212 10.5972 16.5873 11.0945C15.9621 11.071 15.2991 11.071 14.6775 11.0945C14.5347 10.5645 14.2386 10.097 13.8403 9.74187L15.5873 6.2093L17.3519 9.80903ZM9.82643 1.09119H21.3434L18.6233 9.11394C18.5054 9.14226 18.3904 9.17788 18.2787 9.22071L15.5916 3.73901L12.8968 9.18798C12.7803 9.14788 12.6603 9.11558 12.5374 9.09108L9.82643 1.09119ZM20.9594 11.8167C20.9594 11.986 20.9341 12.1494 20.8875 12.3037C20.7767 12.6707 20.544 12.9853 20.2368 13.2003C19.9629 13.3921 19.63 13.505 19.2711 13.505C18.4915 13.505 17.8339 12.9738 17.6406 12.2543C17.6031 12.1147 17.5827 11.968 17.5827 11.8167C17.5827 11.5859 17.6294 11.3658 17.7135 11.1653C17.7569 11.062 17.811 10.9643 17.8732 10.8726C18.177 10.4241 18.6898 10.1283 19.2711 10.1283C19.3244 10.1283 19.377 10.1311 19.429 10.1359C20.2862 10.2158 20.9594 10.939 20.9594 11.8167ZM22.0506 11.8167C22.0506 10.4597 21.0729 9.32743 19.7851 9.08552L22.8656 0H8.30449L11.3897 9.10401C10.1466 9.38063 9.21416 10.4915 9.21416 11.8167C9.21416 12.8117 9.74006 13.6858 10.5282 14.177C10.1491 14.7418 9.69953 15.2732 9.18443 15.7592C8.3674 16.53 7.45724 17.1145 6.47599 17.4991C5.48764 16.8782 5.06983 15.7075 5.50374 14.6875L5.53773 14.6075C5.55901 14.5576 5.58029 14.5076 5.60151 14.4576C6.68708 14.0789 7.46832 13.0457 7.46832 11.8327C7.46832 10.3 6.22141 9.05316 4.68878 9.05316C3.15615 9.05316 1.90925 10.3 1.90925 11.8327C1.90925 12.6063 2.22722 13.3068 2.73899 13.8112C2.64624 14.0089 2.54858 14.21 2.44835 14.4158C1.98045 15.3769 1.45013 16.4662 1.24957 17.6757C0.851235 20.078 1.49378 21.9983 3.05882 23.083C4.00854 23.7412 4.97293 24 5.94349 24C7.77101 24 9.61965 23.0819 11.4278 22.1838C12.7299 21.537 14.0764 20.8682 15.4065 20.5402C15.9014 20.4181 16.4106 20.3447 16.9498 20.2669C18.0189 20.1127 19.1244 19.9533 20.1036 19.3861C21.2387 18.7286 22.0158 17.6258 22.2355 16.3604C22.4241 15.274 22.1971 14.186 21.6435 13.2632C21.9016 12.8416 22.0506 12.3462 22.0506 11.8167Z" fill="white"/>
</svg>
