<svg width="24" height="24" viewBox="0 0 24 24" fill="none" xmlns="http://www.w3.org/2000/svg">
<path fill-rule="evenodd" clip-rule="evenodd" d="M23.443 17.76L23.3356 18.0384C21.5048 21.603 18.2612 23.7903 13.6345 23.8868C11.4716 23.9313 9.41068 23.3764 8.0645 22.7728C5.15906 21.4675 2.71545 19.0467 1.38081 16.4603C-0.533608 12.7525 -0.878801 7.5948 3.1018 3.74237C3.16313 3.74237 2.619 4.5777 2.68033 4.5777L2.57077 4.93416C-0.297713 13.9147 8.5397 21.6106 17.1305 20.7305C19.1951 20.519 21.8279 19.3882 23.443 17.76Z" fill="#21609B"/>
<path fill-rule="evenodd" clip-rule="evenodd" d="M18.2444 14.0466C20.4057 14.0615 22.6633 13.0514 24 11.6331C22.8305 14.602 19.4441 16.5104 14.9026 15.9033C11.1002 15.3946 7.4779 11.5681 7.10466 7.73402C6.83181 4.94365 7.80449 3.27823 9.407 1.25818C8.85003 2.31473 8.64191 3.12961 8.59002 3.64937C7.98114 9.6854 13.4117 14.0151 18.2444 14.0466Z" fill="#21609B"/>
<path fill-rule="evenodd" clip-rule="evenodd" d="M23.783 6.54954C23.447 7.32013 21.5124 8.77561 20.6582 8.95751C17.2754 9.67804 15.1089 8.07395 13.9742 6.24865C13.8054 5.97579 13.4935 5.23141 13.4377 5.04191C12.9976 3.54555 13.1999 1.28227 14.5128 0.110657C14.1173 1.22461 14.0597 2.51862 14.2678 3.35972C14.3938 3.86846 14.7781 4.75622 15.1626 5.31476C15.8624 6.33226 16.3062 6.57942 17.2049 7.11962C17.6096 7.36286 18.0439 7.55786 18.2316 7.61159C19.0837 7.86217 20.8828 8.5232 23.783 6.54954Z" fill="#21609B"/>
</svg>
