<svg width="24" height="24" viewBox="0 0 24 24" fill="none" xmlns="http://www.w3.org/2000/svg">
<rect width="24" height="24" fill="#EEF2FF"/>
<path d="M0 0H24V24H0V0Z" fill="#F7DF1E"/>
<path d="M6.31052 20.0561L8.14717 18.9446C8.5015 19.5729 8.82382 20.1044 9.59696 20.1044C10.3381 20.1044 10.8053 19.8145 10.8053 18.6869V11.0183H13.0607V18.7188C13.0607 21.0548 11.6914 22.118 9.69365 22.118C7.88942 22.118 6.8421 21.1836 6.31049 20.0559" fill="black"/>
<path d="M14.2857 19.8144L16.1222 18.7512C16.6056 19.5407 17.2339 20.1206 18.3454 20.1206C19.2799 20.1206 19.8759 19.6533 19.8759 19.0089C19.8759 18.2356 19.2637 17.9617 18.2326 17.5108L17.6689 17.269C16.0417 16.5764 14.9623 15.7064 14.9623 13.8698C14.9623 12.1782 16.2511 10.8893 18.2649 10.8893C19.6988 10.8893 20.7298 11.3888 21.4708 12.6938L19.7148 13.8214C19.3281 13.1287 18.9094 12.8549 18.265 12.8549C17.6044 12.8549 17.1855 13.2738 17.1855 13.8214C17.1855 14.4981 17.6044 14.772 18.571 15.1909L19.1348 15.4325C21.0519 16.2542 22.1313 17.0919 22.1313 18.9767C22.1313 21.0067 20.5364 22.1182 18.3938 22.1182C16.2995 22.1182 14.9462 21.1194 14.2857 19.8144Z" fill="black"/>
</svg>
