<svg width="24" height="24" viewBox="0 0 24 24" fill="none" xmlns="http://www.w3.org/2000/svg">
<path d="M6.48568 19.0745H6.25909L5.12799 17.9434V17.7168L6.85715 15.9877H8.05511L8.21482 16.1474V17.3453L6.48568 19.0745Z" fill="#05BDBA"/>
<path d="M5.12799 6.2814V6.05481L6.25909 4.92371H6.48568L8.21482 6.65285V7.8508L8.05511 8.01054H6.85715L5.12799 6.2814Z" fill="#05BDBA"/>
<path d="M15.085 15.4286H13.4394L13.302 15.2912V11.4391C13.302 10.7538 13.0327 10.2226 12.2062 10.204C11.7808 10.1929 11.2942 10.204 10.7742 10.2245L10.6962 10.3043V15.2893L10.5587 15.4267H8.91317L8.77573 15.2893V8.70892L8.91317 8.57147H12.6166C14.056 8.57147 15.2224 9.73786 15.2224 11.1773V15.2912L15.085 15.4286Z" fill="#014847"/>
<path d="M6.7197 12.9621H0.13744L0 12.8247V11.1754L0.13744 11.038H6.7197L6.85715 11.1754V12.8247L6.7197 12.9621Z" fill="#05BDBA"/>
<path d="M23.8626 12.9621H17.2803L17.1428 12.8247V11.1754L17.2803 11.038H23.8626L24 11.1754V12.8247L23.8626 12.9621Z" fill="#05BDBA"/>
<path d="M11.0509 6.51543V1.57872L11.1883 1.44128H12.8376L12.9751 1.57872V6.51543L12.8376 6.65285H11.1883L11.0509 6.51543Z" fill="#05BDBA"/>
<path d="M11.0509 22.4213V17.4846L11.1883 17.3472H12.8376L12.9751 17.4846V22.4213L12.8376 22.5587H11.1883L11.0509 22.4213Z" fill="#05BDBA"/>
</svg>
