<svg width="24" height="24" viewBox="0 0 24 24" fill="none" xmlns="http://www.w3.org/2000/svg">
<path d="M17.8112 22.5009C17.7219 22.5482 17.7294 22.5632 17.8149 22.5197C17.8427 22.5084 17.8659 22.4927 17.8862 22.4739C17.8862 22.4582 17.8862 22.4582 17.8112 22.5009ZM17.9912 22.4034C17.9484 22.4387 17.9484 22.4387 17.9994 22.4154C18.0264 22.3997 18.0504 22.3847 18.0504 22.3802C18.0504 22.3599 18.0384 22.3644 17.9912 22.4034ZM18.1082 22.3329C18.0654 22.3682 18.0654 22.3682 18.1164 22.3449C18.1442 22.3292 18.1674 22.3127 18.1674 22.3089C18.1674 22.2902 18.1554 22.2939 18.1082 22.3329ZM18.2267 22.2632C18.1839 22.2984 18.1839 22.2984 18.2334 22.2744C18.2612 22.2594 18.2844 22.2437 18.2844 22.2392C18.2844 22.2204 18.2724 22.2242 18.2267 22.2632ZM18.3864 22.1574C18.3047 22.2122 18.2762 22.2474 18.3512 22.2084C18.4014 22.1777 18.4869 22.1102 18.4719 22.1102C18.4397 22.1222 18.4127 22.1424 18.3857 22.1574H18.3864ZM11.2144 0.0061227C11.1597 0.00987258 10.9954 0.0248721 10.8514 0.0368717C7.44052 0.345862 4.24937 2.1818 2.22668 5.00997C1.10847 6.56017 0.382488 8.36086 0.108747 10.2516C0.0119996 10.9115 0 11.1065 0 12.0012C0 12.8952 0.0119996 13.0872 0.108747 13.7472C0.761976 18.2553 3.96888 22.0397 8.31574 23.4421C9.09797 23.6919 9.91769 23.8644 10.8514 23.9701C11.2144 24.0091 12.7841 24.0091 13.1471 23.9701C14.761 23.7901 16.1237 23.3919 17.4722 22.7042C17.6792 22.5992 17.7182 22.5714 17.6904 22.5482C17.0305 21.6774 16.3825 20.806 15.7338 19.927L13.8161 17.3373L11.4139 13.7787C10.6129 12.5877 9.80894 11.3998 8.99222 10.2208C8.98397 10.2208 8.97347 11.8025 8.96897 13.7314C8.96072 17.1101 8.96072 17.2473 8.91797 17.3253C8.87522 17.4191 8.80472 17.4971 8.71098 17.5406C8.63673 17.5758 8.56998 17.5833 8.21524 17.5833H7.80951L7.70376 17.5173C7.63776 17.4746 7.58301 17.4153 7.54776 17.3456L7.49677 17.2398L7.50052 12.5367L7.50877 7.83363L7.58301 7.73988C7.63026 7.68213 7.68876 7.63488 7.75476 7.59964C7.853 7.55239 7.892 7.54489 8.29774 7.54489C8.77398 7.54489 8.85272 7.56364 8.97797 7.70088C9.94994 9.14984 10.9189 10.6025 11.8721 12.0597C13.4313 14.4237 15.5598 17.6493 16.606 19.2318L18.5087 22.1109L18.6024 22.0487C19.5166 21.439 20.3484 20.713 21.0661 19.885C22.578 18.1541 23.559 16.0249 23.8913 13.7524C23.988 13.0925 24 12.8967 24 12.0027C24 11.108 23.988 10.9168 23.8913 10.2568C23.238 5.74869 20.0311 1.96431 15.6843 0.561105C14.8713 0.303863 14.0351 0.128369 13.1883 0.0383717C12.9611 0.0151224 11.4101 -0.0126267 11.2151 0.00762266L11.2144 0.0061227ZM16.1245 7.26365C16.2377 7.31764 16.3232 7.41964 16.3622 7.53664C16.3825 7.59964 16.3862 8.90384 16.3825 11.8415L16.3742 16.0594L15.6325 14.9194L14.8863 13.7787V10.7165C14.8863 8.73135 14.8945 7.61839 14.905 7.56364C14.9403 7.43839 15.0258 7.33339 15.1398 7.2674C15.2328 7.22015 15.2688 7.2164 15.64 7.2164C15.9873 7.2164 16.0465 7.22015 16.1245 7.26365Z" fill="#27272A"/>
</svg>
