<svg width="24" height="24" viewBox="0 0 24 24" fill="none" xmlns="http://www.w3.org/2000/svg">
<path d="M17.9483 12V12.0238V12.0555V12.0793V12.1031L17.9562 12.1348V12.1586V12.1824L17.9641 12.2141V12.2379L17.9721 12.2617L17.98 12.2934V12.3172L17.9879 12.349L17.9959 12.3728L18.0038 12.4045V12.4362L18.0117 12.46L18.0197 12.4917L18.0276 12.5234L18.0355 12.5472L18.0514 12.579L18.0593 12.6107L18.0672 12.6424L18.0752 12.6741L18.0831 12.7059L18.099 12.7376L18.1069 12.7772L18.1148 12.809L18.1307 12.8407L18.1386 12.8724L18.1545 12.9121L18.1624 12.9438L18.1783 12.9834L18.1862 13.0231L18.2021 13.0628L18.2179 13.0945L18.2259 13.1341L18.2417 13.1738L18.2576 13.2134L18.2655 13.261L18.2814 13.3007L18.2893 13.3403L18.3052 13.3879L18.321 13.4276L18.329 13.4752L18.3448 13.5228L18.3607 13.5624L18.3686 13.61L18.3845 13.6576L18.4003 13.7052L18.4083 13.7607L18.4241 13.8083L18.4321 13.8559L18.4479 13.9114L18.4559 13.959L18.4717 14.0145L18.4797 14.07L18.4876 14.1255L18.5035 14.181L18.5114 14.2366L18.5193 14.2921L18.5272 14.3555L18.5431 14.411L18.551 14.4745L18.559 14.53L18.5669 14.5934V14.6569L18.5748 14.7203L18.5828 14.7838L18.5907 14.8472V14.9107L18.5986 14.9741V15.0455V15.109L18.6066 15.1803V15.2517V15.3152V15.3866L18.5986 15.4579V15.5293V15.6007L18.5907 15.68V15.7514L18.5828 15.8228L18.5748 15.9021L18.5669 15.9814L18.559 16.0528L18.551 16.1321L18.5431 16.2114L18.5272 16.2907L18.5114 16.3621L18.5035 16.4414L18.4876 16.5286L18.4717 16.6079L18.4559 16.6872L18.4321 16.7666L18.4162 16.8459L18.3924 16.9331L18.3686 17.0124L18.3448 17.0997L18.321 17.179L18.2972 17.2662L18.2655 17.3455L18.2417 17.4328L18.21 17.52L18.1783 17.5993L18.1466 17.6866L18.1148 17.7738L18.0752 17.8531L18.0435 17.9403L18.0038 18.0276L17.9641 18.1148L17.9245 18.1941L17.8769 18.2814L17.8372 18.3686L17.7897 18.4559L17.7421 18.5431L17.6945 18.6224L17.6469 18.7097L17.5914 18.7969L17.5438 18.8841L17.4883 18.9634L17.4328 19.0507L17.3772 19.1379L17.3138 19.2172L17.2583 19.3045L17.1948 19.3838L17.1314 19.471L17.0679 19.5503L16.9966 19.6376L16.9331 19.7169L16.8617 19.7962L16.7903 19.8755L16.719 19.9548L16.6476 20.0421L16.5683 20.1134L16.4969 20.1928L16.4176 20.2721L16.3383 20.3514L16.251 20.4228L16.1717 20.5021L16.0845 20.5734L15.9972 20.6528L15.91 20.7241L15.8228 20.7955L15.7355 20.8669L15.6403 20.9383L15.5452 21.0017L15.4579 21.0731L15.3548 21.1366L15.2597 21.2079L15.1645 21.2714L15.0614 21.3348L14.9583 21.3983L14.8552 21.4617L14.7521 21.5172L14.649 21.5807L14.5379 21.6362L14.4348 21.6917L14.3238 21.7472L14.2128 21.8028L14.1017 21.8503L13.9907 21.9059L13.8797 21.9534L13.7607 22.001L13.6417 22.0486L13.5307 22.0883L13.4117 22.1359L13.2928 22.1755L13.1659 22.2152L13.0469 22.2548L12.9279 22.2866L12.801 22.3262L12.6741 22.3579L12.5552 22.3897L12.4283 22.4214L12.3014 22.4452L12.1745 22.4769L12.0476 22.5007L11.9128 22.5245L11.7859 22.5403L11.651 22.5641L11.5241 22.58L11.3893 22.5959L11.2624 22.6117L11.1276 22.6197L10.9928 22.6276L10.8579 22.6355L10.7231 22.6434H10.5883L10.4535 22.6514H10.3186L10.1838 22.6434H10.049L9.90621 22.6355L9.77138 22.6276L9.63656 22.6197L9.4938 22.6038L9.35897 22.5879L9.22414 22.5721L9.08138 22.5562L8.94656 22.5324L8.81173 22.5086L8.66897 22.4848L8.53414 22.461L8.39931 22.4293L8.26449 22.3976L8.12173 22.3659L7.9869 22.3341L7.85207 22.2945L7.71725 22.2548L7.58242 22.2152L7.44759 22.1676L7.31276 22.1279L7.17793 22.0803L7.04311 22.0248L6.90828 21.9772L6.77345 21.9217L6.64656 21.8662L6.51173 21.8107L6.38483 21.7472L6.25 21.6838L6.12311 21.6203L5.99621 21.5569L5.86931 21.4855L5.74242 21.4141L5.61552 21.3428L5.48862 21.2714L5.36173 21.1921L5.24276 21.1128L5.11587 21.0334L4.9969 20.9541L4.87793 20.8669L4.75897 20.7876L4.64 20.7003L4.52897 20.6052L4.41 20.5179L4.29897 20.4228L4.18793 20.3276L4.0769 20.2324L3.96587 20.1372L3.85483 20.0341L3.75173 19.931L3.64069 19.8279L3.53759 19.7248L3.43449 19.6217L3.33931 19.5107L3.23621 19.3997L3.14104 19.2886L3.04587 19.1776L2.95069 19.0666L2.85552 18.9476L2.76828 18.8366L2.67311 18.7176L2.58587 18.5986L2.49862 18.4717L2.41931 18.3528L2.34 18.2259L2.25276 18.1069L2.17345 17.98L2.10207 17.8531L2.02276 17.7262L1.95138 17.5914L1.88 17.4645L1.81656 17.3297L1.74518 17.2028L1.68173 17.0679L1.61828 16.9331L1.55483 16.7983L1.49931 16.6634L1.4438 16.5286L1.38828 16.3859L1.33276 16.251L1.28518 16.1083L1.23759 15.9734L1.19 15.8307L1.14242 15.6879L1.10276 15.5452L1.06311 15.4024L1.02345 15.2597L0.991728 15.1169L0.952073 14.9741L0.92828 14.8314L0.896556 14.6886L0.864831 14.5459L0.841038 14.4031L0.817245 14.2524L0.801383 14.1097L0.785521 13.9669L0.769659 13.8162L0.753797 13.6734L0.737935 13.5307L0.730004 13.38L0.722073 13.2372V13.0945L0.714142 12.9438V12.801V12.6583L0.722073 12.5076V12.3648L0.730004 12.2221L0.745866 12.0793L0.753797 11.9366L0.769659 11.7938L0.785521 11.651L0.801383 11.5083L0.825176 11.3655L0.848969 11.2228L0.872763 11.08L0.896556 10.9452L0.92828 10.8024L0.960004 10.6676L0.991728 10.5248L1.02345 10.39L1.06311 10.2552L1.10276 10.1203L1.14242 9.98552L1.18207 9.85069L1.22966 9.71586L1.26931 9.58103L1.3169 9.45414L1.37242 9.32724L1.42 9.19241L1.47552 9.06552L1.53104 8.93862L1.58656 8.81172L1.64207 8.69276L1.70552 8.56586L1.76897 8.4469L1.83242 8.32L1.89587 8.20103L1.96725 8.08207L2.03069 7.97103L2.10207 7.85207L2.17345 7.74103L2.24483 7.62207L2.31621 7.51103L2.39552 7.4L2.47483 7.2969L2.55414 7.18586L2.63345 7.08276L2.71276 6.97965L2.79207 6.87655L2.87931 6.77345L2.96656 6.67034L3.04587 6.57517L3.13311 6.48L3.22828 6.38483L3.31552 6.28966L3.40276 6.19448L3.49793 6.10724L3.58518 6.02L3.68035 5.93276L3.77552 5.84552L3.87069 5.75828L3.96587 5.67897L4.06104 5.59966L4.16414 5.52034L4.25931 5.44103L4.36242 5.36966L4.45759 5.29828L4.56069 5.2269L4.6638 5.15552L4.7669 5.08414L4.86207 5.02069L4.96518 4.95724L5.06828 4.89379L5.17931 4.83034L5.28242 4.77483L5.38552 4.71138L5.48862 4.65586L5.59173 4.60828L5.70276 4.55276L5.80587 4.50517L5.90897 4.44966L6.02 4.40207L6.12311 4.36241L6.23414 4.31483L6.33725 4.27517L6.44828 4.23552L6.55138 4.19586L6.66242 4.15621L6.76552 4.12448L6.86862 4.09276L6.97966 4.06103L7.08276 4.02931L7.1938 3.99759L7.2969 3.97379L7.4 3.95L7.51104 3.92621L7.61414 3.90241L7.71725 3.87862L7.82828 3.86276L7.93138 3.8469L8.03449 3.83103L8.13759 3.81517L8.24069 3.79931L8.3438 3.79138L8.4469 3.78345L8.55 3.77552L8.65311 3.76759L8.74828 3.75965H8.85138L8.95449 3.75172H9.04966H9.15276L9.24794 3.75965H9.34311H9.43828L9.53345 3.76759L9.62862 3.77552L9.7238 3.78345L9.81897 3.79138L9.91414 3.79931L10.0014 3.81517L10.0966 3.8231L10.1838 3.83897L10.279 3.85483L10.3662 3.87069L10.4535 3.88655L10.5407 3.90241L10.6279 3.92621L10.7072 3.94207L10.7945 3.96586L10.8738 3.98172L10.961 4.00552L11.0403 4.02931L11.1197 4.0531L11.199 4.0769L11.2783 4.10862L11.3576 4.13241L11.429 4.15621L11.5083 4.18793L11.5797 4.21172L11.651 4.24345L11.7224 4.27517L11.7938 4.3069L11.8652 4.33862L11.9366 4.37034L12.0079 4.40207L12.0714 4.43379L12.1348 4.46552L12.2062 4.49724L12.2697 4.52897L12.3331 4.56862L12.3886 4.60034L12.4521 4.63207L12.5155 4.67172L12.571 4.70345L12.6266 4.7431L12.69 4.77483L12.7455 4.81448L12.7931 4.85414L12.8486 4.88586L12.9041 4.92552L12.9517 4.95724L13.0072 4.9969L13.0548 5.03655L13.1024 5.06828L13.15 5.10793L13.1976 5.14759L13.2452 5.17931L13.2928 5.21897L13.3324 5.25862L13.38 5.29034L13.4197 5.33L13.4672 5.36966L13.5069 5.40138L13.5466 5.44103L13.5862 5.48069L13.6259 5.51241L13.6576 5.55207L13.6972 5.58379L13.7369 5.62345L13.7686 5.65517L13.8003 5.6869L13.84 5.72655L13.8717 5.75828L13.9035 5.79L13.9352 5.82965L13.9669 5.86138L13.9986 5.8931L14.0303 5.92483L14.0541 5.95655L14.0859 5.98828L14.1097 6.02L14.1414 6.05172L14.1652 6.08345L14.1969 6.10724L14.2207 6.13897L14.2445 6.17069L14.2683 6.19448L14.3 6.22621L14.3238 6.25793L14.3476 6.28172L14.3714 6.30552L14.3952 6.33724L14.419 6.36103L14.4428 6.38483L14.4586 6.40862L14.4824 6.43241L14.5062 6.45621L14.53 6.48L14.5538 6.50379L14.5697 6.52759L14.5935 6.55138L14.6172 6.56724L14.641 6.59103L14.6569 6.6069L14.6807 6.63069L14.7045 6.64655L14.7203 6.67034L14.7441 6.68621L14.7679 6.70207L14.7838 6.71793L14.8076 6.73379L14.8314 6.74966L14.8472 6.76552L14.871 6.78138L14.8948 6.79724L14.9186 6.8131L14.9345 6.82897L14.9583 6.8369L14.9821 6.85276L15.0059 6.86862L15.0297 6.87655L15.0535 6.89241L15.0772 6.90034L15.101 6.91621L15.1248 6.92414L15.1486 6.93207L15.1724 6.94793L15.1962 6.95586L15.2279 6.96379L15.2517 6.97172L15.2755 6.97965L15.3072 6.99552L15.331 7.00345L15.3628 7.01138L15.3866 7.01931L15.4183 7.02724L15.45 7.03517L15.4817 7.0431L15.5055 7.05103L15.5372 7.05897L15.569 7.0669L15.6007 7.07483H15.6324L15.6721 7.08276L15.7038 7.09069L15.7355 7.09862L15.7752 7.10655L15.8069 7.11448L15.8466 7.12241L15.8783 7.13034L15.9179 7.13828L15.9576 7.14621L15.9972 7.15414L16.0369 7.16207L16.0766 7.17L16.1162 7.17793L16.1559 7.18586L16.1955 7.19379L16.2431 7.20172L16.2828 7.21759L16.3303 7.22552L16.37 7.23345L16.4176 7.24931L16.4572 7.25724L16.5048 7.26517L16.5524 7.28103L16.6 7.2969L16.6476 7.30483L16.6952 7.32069L16.7507 7.33655L16.7983 7.34448L16.8459 7.36034L16.9014 7.37621L16.949 7.39207L17.0045 7.41586L17.0521 7.43172L17.1076 7.44759L17.1631 7.47138L17.2186 7.48724L17.2662 7.51103L17.3217 7.5269L17.3772 7.55069L17.4328 7.57448L17.4962 7.59828L17.5517 7.62207L17.6072 7.64586L17.6628 7.67759L17.7262 7.70138L17.7817 7.7331L17.8372 7.7569L17.9007 7.78862L17.9562 7.82034L18.0197 7.85207L18.0831 7.88379L18.1386 7.91552L18.2021 7.95517L18.2576 7.9869L18.321 8.02655L18.3845 8.06621L18.4479 8.10586L18.5035 8.14552L18.5669 8.18517L18.6303 8.23276L18.6938 8.27241L18.7572 8.32L18.8128 8.36759L18.8762 8.41517L18.9397 8.46276L19.0031 8.51034L19.0666 8.55793L19.1221 8.61345L19.1855 8.66897L19.249 8.72448L19.3124 8.78L19.3679 8.83552L19.4314 8.89103L19.4948 8.95448L19.5503 9.01793L19.6138 9.07345L19.6693 9.1369L19.7328 9.20828L19.7883 9.27172L19.8517 9.33517L19.9072 9.40655L19.9628 9.47793L20.0183 9.54931L20.0738 9.62069L20.1293 9.69207L20.1848 9.77138L20.2403 9.84276L20.2959 9.92207L20.3514 10.0014L20.4069 10.0807L20.4545 10.16L20.51 10.2472L20.5576 10.3266L20.6052 10.4138L20.6528 10.501L20.7003 10.5883L20.7479 10.6755L20.7955 10.7628L20.8431 10.8579L20.8828 10.9531L20.9303 11.0403L20.97 11.1355L21.0097 11.2307L21.0493 11.3338L21.089 11.429L21.1286 11.5241L21.1603 11.6272L21.2 11.7303L21.2317 11.8334L21.2634 11.9366L21.2952 12.0397L21.3269 12.1428L21.3586 12.2459L21.3824 12.3569L21.4062 12.4679L21.43 12.571L21.4538 12.6821L21.4776 12.7931L21.5014 12.9041L21.5172 13.0152L21.5331 13.1341L21.549 13.2452L21.5648 13.3562L21.5807 13.4752L21.5886 13.5941L21.5966 13.7052L21.6045 13.8241L21.6124 13.9431L21.6203 14.0621V14.181V14.3V14.419V14.5459L21.6124 14.6648L21.6045 14.7838L21.5966 14.9107L21.5886 15.0297L21.5807 15.1566L21.5648 15.2755L21.549 15.4024L21.5331 15.5214L21.5172 15.6483L21.4935 15.7752L21.4697 15.8941L21.4459 16.021L21.4221 16.1479L21.3903 16.2669L21.3586 16.3938L21.3269 16.5207L21.2952 16.6397L21.2634 16.7666L21.2238 16.8934L21.1841 17.0124L21.1445 17.1393L21.0969 17.2583L21.0493 17.3852L21.0017 17.5041L20.9541 17.631L20.9066 17.75L20.851 17.8769L20.7955 17.9959L20.74 18.1148L20.6766 18.2338L20.6131 18.3528L20.5576 18.4717L20.4862 18.5907L20.4228 18.7097L20.3514 18.8286L20.28 18.9476L20.2086 19.0586L20.1372 19.1776L20.0579 19.2886L19.9786 19.3997L19.8993 19.5186L19.82 19.6297L19.7328 19.7328L19.6535 19.8438L19.5662 19.9548L19.471 20.0579L19.3838 20.169L19.2886 20.2721L19.1935 20.3752L19.0983 20.4783L19.0031 20.5814L18.9 20.6845L18.7969 20.7797L18.7017 20.8748L18.5907 20.97L18.4876 21.0652L18.3766 21.1603L18.2735 21.2555L18.1624 21.3428L18.0514 21.43L17.9324 21.5172L17.8214 21.6045L17.7024 21.6917L17.5835 21.771L17.4645 21.8503L17.3455 21.9297L17.2186 22.009L17.0997 22.0883L16.9728 22.1597L16.8459 22.231L16.719 22.3024L16.5921 22.3738L16.4652 22.4372L16.3303 22.5007L16.2035 22.5641L16.0686 22.6276L15.9338 22.6831L15.799 22.7466L15.6641 22.7941L15.5293 22.8497L15.3866 22.9052L15.2517 22.9528L15.109 23.0003L14.9741 23.0479L14.8314 23.0876L14.6886 23.1272L14.5459 23.1669L14.4031 23.2066L14.2603 23.2383L14.1176 23.27L13.9748 23.3017L13.8241 23.3334L13.6814 23.3572L13.5386 23.381L13.3879 23.4048L13.2452 23.4207L13.0945 23.4366L12.9438 23.4524L12.801 23.4683L12.6503 23.4762L12.5076 23.4841L12.3569 23.4921L12.2062 23.5H12.0555H11.9128H11.7621L11.6114 23.4921L11.4686 23.4841L11.3179 23.4762L11.1672 23.4683L11.0245 23.4524L10.8738 23.4366L10.731 23.4207L10.5803 23.3969L10.4376 23.3731L10.2869 23.3493L10.1441 23.3255L10.0014 23.2938L9.85069 23.2621L9.70793 23.2303L9.56518 23.1986L9.42242 23.159L9.27966 23.1193L9.1369 23.0797L9.00207 23.0321L8.85931 22.9924L8.72449 22.9448L8.58173 22.8893L8.4469 22.8417L8.31207 22.7862L8.16931 22.7307L8.04242 22.6752L7.90759 22.6117L7.77276 22.5562L7.63794 22.4928L7.51104 22.4214L7.38414 22.3579L7.24931 22.2866L7.12242 22.2152L7.00345 22.1438L6.87656 22.0724L6.74966 21.9931L6.63069 21.9138L6.51173 21.8345L6.39276 21.7552L6.2738 21.6759L6.15483 21.5886L6.0438 21.5014L5.93276 21.4141L5.8138 21.3269L5.71069 21.2317L5.59966 21.1445L5.48862 21.0493L5.38552 20.9541L5.28242 20.859L5.17931 20.7559L5.07621 20.6607L4.98104 20.5576L4.87793 20.4545L4.78276 20.3593L4.68759 20.2483L4.60035 20.1452L4.50518 20.0421L4.41793 19.931L4.33069 19.82L4.25138 19.7169L4.16414 19.6059L4.08483 19.4948L4.00552 19.3759L3.92621 19.2648L3.8469 19.1538L3.77552 19.0348L3.70414 18.9238L3.63276 18.8048L3.56138 18.6859L3.49793 18.5669L3.43449 18.4479L3.37104 18.329L3.30759 18.21L3.25207 18.091L3.19656 17.9721L3.14104 17.8452L3.08552 17.7262L3.03793 17.6072L2.98242 17.4803L2.94276 17.3614L2.89518 17.2345L2.84759 17.1155L2.80793 16.9886L2.76828 16.8617L2.72862 16.7428L2.6969 16.6159L2.66518 16.489L2.63345 16.37L2.60173 16.2431L2.57793 16.1162L2.54621 15.9972L2.52242 15.8703L2.49862 15.7434L2.48276 15.6245L2.4669 15.4976L2.44311 15.3786L2.43518 15.2517L2.41931 15.1328L2.41138 15.0059L2.39552 14.8869V14.76L2.38759 14.641L2.37966 14.5221V14.3952V14.2762V14.1572L2.38759 14.0383V13.9193L2.39552 13.8003L2.40345 13.6814L2.41138 13.5703L2.42725 13.4514L2.43518 13.3403L2.45104 13.2214L2.4669 13.1103L2.48276 12.9914L2.50656 12.8803L2.52242 12.7693L2.54621 12.6583L2.57 12.5472L2.5938 12.4441L2.62552 12.3331L2.64931 12.23L2.68104 12.119L2.71276 12.0159L2.74449 11.9128L2.77621 11.8097L2.80793 11.7066L2.84759 11.6034L2.87931 11.5083L2.91897 11.4052L2.95862 11.31L2.99828 11.2148L3.03793 11.1197L3.07759 11.0245L3.12518 10.9293L3.16483 10.8421L3.21242 10.7469L3.26 10.6597L3.30759 10.5724L3.35518 10.4852L3.40276 10.3979L3.45035 10.3107L3.50587 10.2314L3.55345 10.1441L3.60897 10.0648L3.66449 9.98552L3.71207 9.90621L3.76759 9.8269L3.82311 9.75552L3.87862 9.67621L3.93414 9.60483L3.98966 9.53345L4.04518 9.46207L4.10862 9.39069L4.16414 9.32724L4.21966 9.25586L4.28311 9.19241L4.33862 9.12897L4.40207 9.06552L4.45759 9.00207L4.52104 8.93862L4.58449 8.8831L4.64 8.81966L4.70345 8.76414L4.7669 8.70862L4.82242 8.6531L4.88587 8.60552L4.94931 8.55L5.01276 8.50241L5.07621 8.45483L5.13173 8.39931L5.19518 8.35172L5.25862 8.31207L5.32207 8.26448L5.38552 8.22483L5.44104 8.17724L5.50449 8.13759L5.56793 8.09793L5.63138 8.05828L5.6869 8.01862L5.75035 7.97897L5.8138 7.94724L5.86931 7.91552L5.93276 7.87586L5.99621 7.84414L6.05173 7.81241L6.11518 7.78069L6.17069 7.74897L6.23414 7.72517L6.28966 7.69345L6.34518 7.66966L6.40862 7.64586L6.46414 7.61414L6.51966 7.59034L6.57518 7.56655L6.63069 7.55069L6.68621 7.5269L6.74173 7.5031L6.79725 7.48724L6.85276 7.46345L6.90035 7.44759L6.95587 7.42379L7.01138 7.40793L7.05897 7.39207L7.11449 7.37621L7.16207 7.36034L7.20966 7.34448L7.26518 7.32862L7.31276 7.32069L7.36035 7.30483L7.40793 7.28897L7.45552 7.28103L7.50311 7.26517L7.55069 7.25724L7.59035 7.24138L7.63794 7.23345L7.68552 7.22552L7.72518 7.20965L7.77276 7.20172L7.81242 7.19379L7.85207 7.18586L7.89173 7.17793L7.93138 7.17L7.97104 7.16207L8.01069 7.15414L8.05035 7.14621L8.09 7.13828L8.12966 7.13034L8.16138 7.12241L8.20104 7.11448L8.23276 7.10655L8.27242 7.09862L8.30414 7.09069L8.33587 7.08276L8.36759 7.07483L8.39931 7.0669L8.43897 7.05897L8.46276 7.05103H8.49449L8.52621 7.0431L8.55793 7.03517L8.58966 7.02724L8.61345 7.01931L8.64518 7.01138L8.66897 6.99552L8.70069 6.98759L8.72449 6.97965L8.75621 6.97172L8.78 6.96379L8.8038 6.95586L8.82759 6.94L8.85931 6.93207L8.88311 6.92414L8.9069 6.90828L8.93069 6.90034L8.95449 6.89241L8.97828 6.87655L9.00207 6.86069L9.01794 6.85276L9.04173 6.8369L9.06552 6.82103L9.08931 6.8131L9.11311 6.79724L9.12897 6.78138L9.15276 6.76552L9.17656 6.74966L9.20035 6.73379L9.21621 6.71793L9.24 6.70207L9.2638 6.67828L9.27966 6.66241L9.30345 6.64655L9.32725 6.62276L9.34311 6.6069L9.3669 6.5831L9.39069 6.56724L9.40656 6.54345L9.43035 6.51966L9.45414 6.49586L9.47793 6.48L9.4938 6.45621L9.51759 6.43241L9.54138 6.40862L9.56518 6.3769L9.58897 6.3531L9.61276 6.32931L9.63656 6.30552L9.66035 6.27379L9.68414 6.25L9.70793 6.21828L9.73173 6.19448L9.75552 6.16276L9.78725 6.13103L9.81104 6.10724L9.83483 6.07552L9.86656 6.04379L9.89035 6.01207L9.92207 5.98034L9.9538 5.94862L9.97759 5.9169L10.0093 5.88517L10.041 5.85345L10.0728 5.82172L10.1045 5.78207L10.1362 5.75034L10.1679 5.71862L10.2076 5.67897L10.2393 5.64724L10.271 5.61552L10.3107 5.57586L10.3503 5.54414L10.3821 5.50448L10.4217 5.47276L10.4614 5.4331L10.501 5.39345L10.5407 5.36172L10.5883 5.32207L10.6279 5.29034L10.6755 5.25069L10.7152 5.21103L10.7628 5.17931L10.8103 5.13966L10.8579 5.1L10.9055 5.06828L10.9531 5.02862L11.0007 4.98897L11.0562 4.95724L11.1038 4.91759L11.1593 4.87793L11.2148 4.84621L11.2703 4.80655L11.3259 4.7669L11.3814 4.73517L11.4369 4.69552L11.5003 4.66379L11.5559 4.63207L11.6193 4.59241L11.6828 4.56069L11.7462 4.52103L11.8097 4.48931L11.8731 4.45759L11.9445 4.42586L12.0079 4.39414L12.0793 4.36241L12.1507 4.33069L12.2141 4.29897L12.2855 4.26724L12.3648 4.23552L12.4362 4.21172L12.5076 4.18L12.5869 4.15621L12.6583 4.12448L12.7376 4.10069L12.8169 4.0769L12.8962 4.0531L12.9755 4.02931L13.0548 4.00552L13.1421 3.98172L13.2214 3.95793L13.3086 3.94207L13.3959 3.91828L13.4831 3.90241L13.5624 3.88655L13.6576 3.86276L13.7448 3.8469L13.8321 3.83897L13.9193 3.8231L14.0145 3.80724L14.1097 3.79931L14.1969 3.79138L14.2921 3.78345L14.3872 3.77552L14.4824 3.76759L14.5776 3.75965H14.6728L14.7759 3.75172H14.871H14.9662L15.0693 3.75965H15.1724H15.2676L15.3707 3.76759L15.4738 3.77552L15.5769 3.78345L15.68 3.79138L15.7831 3.80724L15.8862 3.81517L15.9893 3.83103L16.0924 3.8469L16.1955 3.86276L16.2986 3.88655L16.4097 3.90241L16.5128 3.92621L16.6159 3.95L16.7269 3.98172L16.83 4.00552L16.9331 4.03724L17.0441 4.06103L17.1472 4.09276L17.2583 4.13241L17.3614 4.16414L17.4724 4.20379L17.5755 4.24345L17.6866 4.2831L17.7897 4.32276L17.9007 4.37034L18.0038 4.41793L18.1069 4.46552L18.2179 4.5131L18.321 4.56069L18.4241 4.61621L18.5352 4.67172L18.6383 4.72724L18.7414 4.78276L18.8445 4.84621L18.9476 4.90172L19.0507 4.96517L19.1538 5.03655L19.2569 5.1L19.36 5.17138L19.4631 5.24276L19.5583 5.31414L19.6614 5.38552L19.7566 5.4569L19.8597 5.53621L19.9548 5.61552L20.05 5.69483L20.1452 5.78207L20.2403 5.86138L20.3355 5.94862L20.4307 6.03586L20.5259 6.1231L20.6131 6.21828L20.7003 6.30552L20.7955 6.40069L20.8828 6.49586L20.97 6.59103L21.0572 6.69414L21.1366 6.78931L21.2238 6.89241L21.3031 6.99552L21.3824 7.09862L21.4617 7.20965L21.541 7.31276L21.6203 7.42379L21.6917 7.53483L21.771 7.64586L21.8424 7.76483L21.9138 7.87586L21.9852 7.99483L22.0486 8.10586L22.12 8.22483L22.1835 8.35172L22.2469 8.47069L22.3024 8.58965L22.3659 8.71655L22.4214 8.84345L22.4848 8.96241L22.5324 9.08931L22.5879 9.22414L22.6435 9.35103L22.691 9.47793L22.7386 9.61276L22.7862 9.74759L22.8259 9.87448L22.8655 10.0093L22.9052 10.1441L22.9448 10.279L22.9845 10.4217L23.0162 10.5566L23.0479 10.6914L23.0797 10.8341L23.1114 10.969L23.1352 11.1117L23.159 11.2545L23.1828 11.3972L23.1986 11.5321L23.2145 11.6748L23.2303 11.8176L23.2462 11.9603L23.2621 12.111L23.27 12.2538L23.2779 12.3966V12.5393L23.2859 12.6821V12.8328V12.9755L23.2779 13.1183V13.269L23.27 13.4117L23.2541 13.5545L23.2462 13.7052L23.2303 13.8479L23.2145 13.9907L23.1986 14.1414L23.1748 14.2841L23.151 14.4269L23.1272 14.5776L23.0955 14.7203L23.0717 14.8631L23.04 15.0059L23.0003 15.1486L22.9686 15.2914L22.929 15.4341L22.8893 15.5769L22.8497 15.7197L22.8021 15.8624L22.7545 15.9972L22.7069 16.14L22.6514 16.2748L22.6038 16.4176L22.5483 16.5524L22.4928 16.6872L22.4293 16.83L22.3659 16.9648L22.3024 17.0917L22.239 17.2266L22.1755 17.3614L22.1041 17.4883L22.0328 17.6231L21.9614 17.75L21.8821 17.8769L21.8107 18.0038L21.7314 18.1307L21.6441 18.2576L21.5648 18.3766L21.4776 18.5034L21.3903 18.6224L21.3031 18.7414L21.2159 18.8603L21.1286 18.9714L21.0335 19.0903L20.9383 19.2014L20.8431 19.3124L20.74 19.4234L20.6448 19.5345L20.5417 19.6455L20.4386 19.7486L20.3355 19.8517L20.2324 19.9548L20.1214 20.0579L20.0103 20.1531L19.8993 20.2562L19.7883 20.3514L19.6772 20.4466L19.5662 20.5338L19.4472 20.629L19.3362 20.7162L19.2172 20.8034L19.0983 20.8907L18.9793 20.97L18.8524 21.0493L18.7335 21.1286L18.6066 21.2079L18.4876 21.2872L18.3607 21.3586L18.2338 21.43L18.1069 21.5014L17.98 21.5648L17.8531 21.6362L17.7183 21.6997L17.5914 21.7552L17.4645 21.8186L17.3297 21.8741L17.1948 21.9297L17.0679 21.9852L16.9331 22.0407L16.7983 22.0883L16.6635 22.1359L16.5286 22.1755L16.3938 22.2231L16.259 22.2628L16.1241 22.3024L15.9814 22.3421L15.8466 22.3738L15.7117 22.4055L15.5769 22.4372L15.4341 22.469L15.2993 22.4928L15.1645 22.5166L15.0217 22.5403L14.8869 22.5562L14.7521 22.58L14.6093 22.5959L14.4745 22.6117L14.3397 22.6197L14.1969 22.6276L14.0621 22.6355L13.9272 22.6434H13.7924L13.6576 22.6514H13.5228L13.38 22.6434H13.2452L13.1183 22.6355L12.9835 22.6276L12.8486 22.6197L12.7138 22.6038L12.579 22.5959L12.4521 22.58L12.3172 22.5562L12.1903 22.5403L12.0555 22.5166L11.9286 22.4928L11.8017 22.469L11.6748 22.4452L11.5479 22.4134L11.421 22.3817L11.2941 22.35L11.1752 22.3183L11.0483 22.2866L10.9293 22.2469L10.8024 22.2072L10.6835 22.1676L10.5645 22.1279L10.4455 22.0803L10.3345 22.0328L10.2155 21.9931L10.1045 21.9455L9.98552 21.89L9.87449 21.8424L9.76345 21.7869L9.65242 21.7314L9.54138 21.6759L9.43828 21.6203L9.32725 21.5648L9.22414 21.5093L9.12104 21.4459L9.01794 21.3824L8.91483 21.319L8.81966 21.2555L8.71656 21.1921L8.62138 21.1286L8.52621 21.0572L8.43104 20.9938L8.33587 20.9224L8.24862 20.851L8.16138 20.7797L8.06621 20.7083L7.97897 20.6369L7.89966 20.5576L7.81242 20.4862L7.73311 20.4148L7.64587 20.3355L7.56656 20.2562L7.48725 20.1769L7.41587 20.0976L7.33656 20.0183L7.26518 19.939L7.1938 19.8597L7.12242 19.7803L7.05104 19.701L6.98759 19.6217L6.91621 19.5345L6.85276 19.4552L6.78931 19.3679L6.7338 19.2886L6.67035 19.2014L6.61483 19.1221L6.55931 19.0348L6.5038 18.9476L6.44828 18.8603L6.39276 18.781L6.34518 18.6938L6.29759 18.6066L6.24207 18.5193L6.20242 18.44L6.15483 18.3528L6.10725 18.2655L6.06759 18.1783L6.02793 18.091L5.98828 18.0117L5.94862 17.9245L5.9169 17.8372L5.87725 17.75L5.84552 17.6707L5.8138 17.5834L5.78207 17.4962L5.75035 17.4169L5.72656 17.3297L5.69483 17.2503L5.67104 17.1631L5.64725 17.0838L5.62345 16.9966L5.59966 16.9172L5.5838 16.83L5.56 16.7507L5.54414 16.6714L5.52828 16.5921L5.51242 16.5128L5.49656 16.4255L5.48069 16.3462L5.47276 16.2748L5.4569 16.1955L5.44897 16.1162L5.44104 16.0369L5.43311 15.9655L5.42518 15.8862L5.41725 15.8148L5.40931 15.7355V15.6641L5.40138 15.5928V15.5134L5.39345 15.4421V15.3707V15.3072V15.2359V15.1645L5.40138 15.101V15.0297V14.9662L5.40931 14.8948L5.41725 14.8314V14.7679L5.42518 14.7045L5.43311 14.641L5.44104 14.5776L5.44897 14.5221L5.4569 14.4586L5.46483 14.3952L5.47276 14.3397L5.48069 14.2841L5.48862 14.2286L5.50449 14.1731L5.51242 14.1176L5.52035 14.0621L5.53621 14.0066L5.54414 13.951L5.56 13.9034L5.56793 13.8479L5.5838 13.8003L5.59173 13.7448L5.60759 13.6972L5.61552 13.6497L5.63138 13.6021L5.64725 13.5545L5.65518 13.5069L5.67104 13.4672L5.6869 13.4197L5.69483 13.38L5.71069 13.3324L5.72656 13.2928L5.73449 13.2531L5.75035 13.2055L5.75828 13.1659L5.77414 13.1262L5.79 13.0866L5.79794 13.0548L5.8138 13.0152L5.82173 12.9755L5.83759 12.9438L5.84552 12.9041L5.86138 12.8724L5.86931 12.8328L5.88518 12.801L5.89311 12.7693L5.90897 12.7297L5.9169 12.6979L5.92483 12.6662L5.93276 12.6345L5.94862 12.6028L5.95656 12.579L5.96449 12.5472L5.97242 12.5155L5.98035 12.4838L5.98828 12.4521L5.99621 12.4283L6.00414 12.3966V12.3728L6.01207 12.341L6.02 12.3172L6.02793 12.2855V12.2617L6.03587 12.23V12.2062L6.0438 12.1824V12.1507V12.1269L6.05173 12.1031V12.0714V12.0476V12.0238V11.9921V11.9683V11.9445V11.9128L6.0438 11.889V11.8652V11.8334L6.03587 11.8097V11.7859V11.7541L6.02793 11.7303L6.02 11.6986V11.6748L6.01207 11.6431L6.00414 11.6193L5.99621 11.5876L5.98828 11.5638L5.98035 11.5321L5.97242 11.5003L5.96449 11.4766L5.95656 11.4448L5.94862 11.4131L5.94069 11.3814L5.93276 11.3497L5.92483 11.3179L5.90897 11.2862L5.90104 11.2545L5.89311 11.2228L5.87725 11.1831L5.86931 11.1514L5.85345 11.1197L5.84552 11.08L5.82966 11.0483L5.82173 11.0086L5.80587 10.969L5.79794 10.9293L5.78207 10.8976L5.76621 10.8579L5.75828 10.8183L5.74242 10.7786L5.72656 10.731L5.71862 10.6914L5.70276 10.6517L5.69483 10.6041L5.67897 10.5645L5.66311 10.5169L5.65518 10.4693L5.63931 10.4217L5.62345 10.3741L5.61552 10.3266L5.59966 10.279L5.59173 10.2314L5.57587 10.1838L5.56 10.1283L5.55207 10.0807L5.53621 10.0252L5.52828 9.96966L5.52035 9.92207L5.50449 9.86655L5.49656 9.81103L5.48862 9.74759L5.48069 9.69207L5.46483 9.63655L5.4569 9.5731L5.44897 9.51759L5.44104 9.45414L5.43311 9.39862L5.42518 9.33517V9.27172L5.41725 9.20828L5.40931 9.14483V9.07345L5.40138 9.01V8.93862V8.87517L5.39345 8.80379V8.74034V8.66897V8.59759L5.40138 8.52621V8.45483V8.38345L5.40931 8.30414V8.23276L5.41725 8.16138L5.42518 8.08207L5.43311 8.01069L5.44104 7.93138L5.44897 7.85207L5.46483 7.77276L5.47276 7.69345L5.48862 7.61414L5.50449 7.53483L5.52035 7.45552L5.53621 7.37621L5.55207 7.2969L5.56793 7.21759L5.59173 7.13034L5.61552 7.05103L5.63138 6.97172L5.65518 6.88448L5.67897 6.80517L5.71069 6.71793L5.73449 6.63862L5.76621 6.55138L5.79794 6.46414L5.82966 6.38483L5.86138 6.29759L5.89311 6.21034L5.93276 6.1231L5.96449 6.04379L6.00414 5.95655L6.0438 5.86931L6.08345 5.78207L6.13104 5.70276L6.17069 5.61552L6.21828 5.52828L6.26587 5.44103L6.31345 5.35379L6.36104 5.27448L6.41656 5.18724L6.47207 5.1L6.51966 5.01276L6.57518 4.93345L6.63862 4.84621L6.69414 4.7669L6.75759 4.67966L6.82104 4.59241L6.88449 4.5131L6.94794 4.43379L7.01138 4.34655L7.08276 4.26724L7.15414 4.18793L7.22552 4.10862L7.2969 4.02138L7.36828 3.94207L7.44759 3.86276L7.51897 3.79138L7.59828 3.71207L7.68552 3.63276L7.76483 3.56138L7.84414 3.48207L7.93138 3.41069L8.01862 3.33138L8.10587 3.26L8.19311 3.18862L8.28828 3.11724L8.37552 3.05379L8.47069 2.98241L8.56587 2.91103L8.66104 2.84759L8.75621 2.78414L8.85931 2.71276L8.96242 2.64931L9.05759 2.59379L9.16069 2.53034L9.2638 2.4669L9.37483 2.41138L9.47793 2.35586L9.58897 2.30034L9.7 2.24483L9.81104 2.18931L9.92207 2.14172L10.0331 2.08621L10.1441 2.03862L10.2631 1.99103L10.3821 1.94345L10.4931 1.90379L10.6121 1.85621L10.731 1.81655L10.8579 1.7769L10.9769 1.73724L11.0959 1.70552L11.2228 1.66586L11.3497 1.63414L11.4766 1.60241L11.5955 1.57069L11.7224 1.5469L11.8572 1.5231L11.9841 1.49931L12.111 1.47552L12.2379 1.45172L12.3728 1.43586L12.5076 1.42L12.6345 1.40414L12.7693 1.38828L12.9041 1.38034L13.039 1.36448H13.1659L13.3007 1.35655L13.4355 1.34862H13.5783H13.7131L13.8479 1.35655H13.9828L14.1176 1.36448L14.2524 1.37241L14.3952 1.38828L14.53 1.39621L14.6648 1.41207L14.8076 1.42793L14.9424 1.45172L15.0772 1.46759L15.22 1.49138L15.3548 1.51517L15.4897 1.5469L15.6324 1.57069L15.7672 1.60241L15.9021 1.64207L16.0369 1.67379L16.1797 1.71345L16.3145 1.7531L16.4493 1.79276L16.5841 1.84034L16.719 1.88793L16.8538 1.93552L16.9886 1.9831L17.1155 2.03862L17.2503 2.09414L17.3852 2.14966L17.5121 2.20517L17.6469 2.26862L17.7738 2.33207L17.9007 2.39552L18.0355 2.45897L18.1624 2.53034L18.2893 2.60172L18.4083 2.6731L18.5352 2.74448L18.6621 2.82379L18.781 2.9031L18.9079 2.98241L19.0269 3.06172L19.1459 3.14897L19.2648 3.23621L19.3838 3.32345L19.4948 3.41069L19.6138 3.49793L19.7248 3.5931L19.8359 3.68828L19.9469 3.78345L20.0579 3.88655L20.169 3.98172L20.2721 4.08483L20.3752 4.18793L20.4783 4.29103L20.5814 4.40207L20.6845 4.5131L20.7797 4.61621L20.8828 4.72724L20.9779 4.84621L21.0731 4.95724L21.1603 5.07621L21.2555 5.18724L21.3428 5.30621L21.43 5.42517L21.5172 5.55207L21.5966 5.67103L21.6838 5.79793L21.7631 5.9169L21.8424 6.04379L21.9138 6.17069L21.9852 6.30552L22.0645 6.43241L22.1359 6.55931L22.1993 6.69414L22.2707 6.82897L22.3341 6.95586L22.3976 7.09069L22.4531 7.22552L22.5166 7.36828L22.5721 7.5031L22.6276 7.63793L22.6752 7.78069L22.7228 7.91552L22.7703 8.05828L22.8179 8.20103L22.8655 8.33586L22.9052 8.47862L22.9448 8.62138L22.9845 8.76414L23.0162 8.9069L23.0479 9.04966L23.0797 9.19241L23.1114 9.3431L23.1352 9.48586L23.159 9.62862L23.1828 9.77138L23.2066 9.92207L23.2224 10.0648L23.2383 10.2076L23.2462 10.3583L23.2621 10.501L23.27 10.6438L23.2779 10.7945L23.2859 10.9372V11.08V11.2307V11.3734L23.2779 11.5162L23.27 11.6669L23.2621 11.8097L23.2541 11.9524L23.2383 12.0952L23.2303 12.2379L23.2145 12.3807L23.1907 12.5234L23.1748 12.6662L23.151 12.801L23.1272 12.9438L23.0955 13.0866L23.0638 13.2214L23.04 13.3641L23.0003 13.499L22.9686 13.6338L22.929 13.7766L22.8893 13.9114L22.8497 14.0462L22.81 14.181L22.7624 14.3079L22.7148 14.4428L22.6672 14.5697L22.6197 14.7045L22.5641 14.8314L22.5166 14.9583L22.461 15.0852L22.3976 15.2121L22.3421 15.339L22.2786 15.4579L22.2231 15.5769L22.1517 15.7038L22.0883 15.8228L22.0248 15.9417L21.9535 16.0528L21.8821 16.1717L21.8107 16.2828L21.7393 16.4017L21.6679 16.5128L21.5886 16.6159L21.5093 16.7269L21.43 16.8379L21.3507 16.941L21.2714 17.0441L21.1921 17.1472L21.1048 17.2503L21.0176 17.3455L20.9303 17.4486L20.8431 17.5438L20.7559 17.639L20.6686 17.7341L20.5735 17.8214L20.4862 17.9086L20.391 18.0038L20.2959 18.0831L20.2007 18.1703L20.1055 18.2576L20.0103 18.3369L19.9152 18.4162L19.82 18.4955L19.7169 18.5669L19.6217 18.6462L19.5186 18.7176L19.4155 18.789L19.3203 18.8603L19.2172 18.9238L19.1141 18.9952L19.011 19.0586L18.9079 19.1221L18.8048 19.1776L18.7017 19.241L18.5907 19.2966L18.4876 19.3521L18.3845 19.4076L18.2814 19.4552L18.1703 19.5107L18.0672 19.5583L17.9562 19.6059L17.8531 19.6455L17.75 19.6931L17.639 19.7328L17.5359 19.7724L17.4248 19.8121L17.3217 19.8517L17.2107 19.8834L17.1076 19.9152L16.9966 19.9469L16.8935 19.9786L16.7903 20.0024L16.6793 20.0341L16.5762 20.0579L16.4652 20.0817L16.3621 20.1055L16.259 20.1214L16.1559 20.1372L16.0448 20.161L15.9417 20.1769L15.8386 20.1848L15.7355 20.2007L15.6324 20.2086L15.5293 20.2166L15.4341 20.2245L15.331 20.2324L15.2279 20.2403H15.1248L15.0297 20.2483H14.9266H14.8314L14.7362 20.2403H14.6331L14.5379 20.2324H14.4428L14.3476 20.2245L14.2524 20.2166L14.1652 20.2086L14.07 20.1928L13.9748 20.1848L13.8876 20.169L13.7924 20.161L13.7052 20.1452L13.6179 20.1293L13.5307 20.1134L13.4435 20.0897L13.3562 20.0738L13.2769 20.05L13.1897 20.0341L13.1103 20.0103L13.0231 19.9866L12.9438 19.9628L12.8645 19.939L12.7852 19.9152L12.7059 19.8914L12.6266 19.8597L12.5552 19.8359L12.4759 19.8041L12.4045 19.7803L12.3331 19.7486L12.2617 19.7169L12.1903 19.6931L12.119 19.6614L12.0476 19.6297L11.9841 19.5979L11.9128 19.5583L11.8493 19.5266L11.7859 19.4948L11.7224 19.4631L11.659 19.4234L11.5955 19.3917L11.5321 19.36L11.4766 19.3203L11.4131 19.2886L11.3576 19.249L11.3021 19.2172L11.2466 19.1776L11.191 19.1459L11.1355 19.1062L11.0879 19.0666L11.0324 19.0348L10.9848 18.9952L10.9372 18.9555L10.8817 18.9238L10.8341 18.8841L10.7866 18.8445L10.7469 18.8128L10.6993 18.7731L10.6517 18.7334L10.6121 18.7017L10.5724 18.6621L10.5248 18.6224L10.4852 18.5907L10.4455 18.551L10.4059 18.5193L10.3662 18.4797L10.3345 18.44L10.2948 18.4083L10.2631 18.3766L10.2235 18.3369L10.1917 18.3052L10.16 18.2655L10.1203 18.2338L10.0886 18.2021L10.0569 18.1703L10.0252 18.1307L10.0014 18.099L9.96966 18.0672L9.93793 18.0355L9.90621 18.0038L9.88242 17.9721L9.85069 17.9403L9.8269 17.9166L9.80311 17.8848L9.77138 17.8531L9.74759 17.8214L9.7238 17.7976L9.7 17.7659L9.67621 17.7421L9.65242 17.7103L9.62862 17.6866L9.60483 17.6628L9.58104 17.631L9.55725 17.6072L9.53345 17.5834L9.50966 17.5597L9.48587 17.5359L9.47 17.5121L9.44621 17.4883L9.42242 17.4724L9.39862 17.4486L9.38276 17.4248L9.35897 17.409L9.33518 17.3852L9.31931 17.3693L9.29552 17.3455L9.27173 17.3297L9.25587 17.3138L9.23207 17.29L9.20828 17.2741L9.18449 17.2583L9.16862 17.2424L9.14483 17.2266L9.12104 17.2107L9.10518 17.1948L9.08138 17.1869L9.05759 17.171L9.0338 17.1552L9.01 17.1472L8.98621 17.1314L8.96242 17.1155L8.93862 17.1076L8.91483 17.0917L8.89104 17.0838L8.86725 17.0759L8.84345 17.06L8.81966 17.0521L8.79587 17.0441L8.77207 17.0362L8.74035 17.0203L8.71656 17.0124L8.68483 17.0045L8.66104 16.9966L8.62931 16.9886L8.60552 16.9807L8.5738 16.9728L8.54207 16.9648L8.51828 16.9569L8.48656 16.949L8.45483 16.941L8.42311 16.9331L8.39138 16.9252L8.35966 16.9172L8.32 16.9093H8.28828L8.25656 16.9014L8.2169 16.8934L8.18518 16.8855L8.14552 16.8776L8.1138 16.8697L8.07414 16.8617L8.03449 16.8538L7.99483 16.8459L7.95518 16.8379L7.91552 16.83L7.87587 16.8221L7.83621 16.8141L7.79656 16.7983L7.74897 16.7903L7.70931 16.7824L7.66173 16.7745L7.62207 16.7586L7.57449 16.7507L7.5269 16.7428L7.48725 16.7269L7.43966 16.719L7.39207 16.7031L7.34449 16.6872L7.28897 16.6793L7.24138 16.6634L7.1938 16.6476L7.14621 16.6317L7.09069 16.6159L7.04311 16.6L6.98759 16.5841L6.93207 16.5683L6.88449 16.5445L6.82897 16.5286L6.77345 16.5048L6.71794 16.489L6.66242 16.4652L6.6069 16.4414L6.55138 16.4176L6.49587 16.3938L6.44035 16.37L6.38483 16.3462L6.32138 16.3224L6.26587 16.2907L6.21035 16.2669L6.1469 16.2352L6.09138 16.2034L6.02793 16.1717L5.97242 16.14L5.90897 16.1083L5.84552 16.0766L5.79 16.0369L5.72656 16.0052L5.66311 15.9655L5.60759 15.9259L5.54414 15.8862L5.48069 15.8466L5.41725 15.8069L5.3538 15.7593L5.29828 15.7197L5.23483 15.6721L5.17138 15.6245L5.10793 15.5769L5.04449 15.5293L4.98897 15.4817L4.92552 15.4262L4.86207 15.3786L4.79862 15.3231L4.74311 15.2676L4.67966 15.2121L4.61621 15.1566L4.56069 15.0931L4.49725 15.0376L4.4338 14.9741L4.37828 14.9107L4.31483 14.8472L4.25931 14.7838L4.19587 14.7124L4.14035 14.649L4.08483 14.5776L4.02138 14.5062L3.96587 14.4348L3.91035 14.3634L3.85483 14.2921L3.79931 14.2128L3.7438 14.1414L3.68828 14.0621L3.64069 13.9828L3.58518 13.9034L3.53759 13.8241L3.48207 13.7369L3.43449 13.6497L3.3869 13.5703L3.33931 13.4831L3.2838 13.3959L3.24414 13.3086L3.19656 13.2134L3.14897 13.1262L3.10931 13.031L3.06173 12.9359L3.02207 12.8407L2.98242 12.7455L2.94276 12.6503L2.90311 12.5552L2.86345 12.4521L2.83173 12.349L2.79207 12.2538L2.76035 12.1507L2.72862 12.0476L2.6969 11.9445L2.66518 11.8334L2.64138 11.7303L2.60966 11.6193L2.58587 11.5162L2.56207 11.4052L2.53828 11.2941L2.51449 11.1831L2.49862 11.0721L2.47483 10.961L2.45897 10.8421L2.44311 10.731L2.43518 10.62L2.41931 10.501L2.41138 10.3821L2.40345 10.271L2.39552 10.1521L2.38759 10.0331L2.37966 9.91414V9.79517V9.67621V9.54931V9.43034L2.38759 9.31138L2.39552 9.19241L2.40345 9.06552L2.41138 8.94655L2.42725 8.81966L2.43518 8.70069L2.45104 8.57379L2.4669 8.4469L2.49069 8.32793L2.51449 8.20103L2.53035 8.08207L2.56207 7.95517L2.58587 7.82828L2.61759 7.70931L2.64138 7.58241L2.67311 7.45552L2.71276 7.33655L2.74449 7.20965L2.78414 7.08276L2.8238 6.96379L2.87138 6.8369L2.91104 6.71L2.95862 6.59103L3.00621 6.46414L3.0538 6.34517L3.10931 6.22621L3.16483 6.09931L3.22035 5.98034L3.27587 5.86138L3.33138 5.74241L3.39483 5.62345L3.45828 5.50448L3.52173 5.38552L3.59311 5.26655L3.66449 5.14759L3.73587 5.02862L3.80725 4.91759L3.87862 4.79862L3.95793 4.68759L4.03725 4.57655L4.11656 4.46552L4.19587 4.35448L4.28311 4.24345L4.37035 4.13241L4.45759 4.02138L4.54483 3.91828L4.64 3.80724L4.72725 3.70414L4.82242 3.60103L4.91759 3.49793L5.02069 3.40276L5.11587 3.29966L5.21897 3.20448L5.32207 3.10138L5.42518 3.00621L5.53621 2.91103L5.63931 2.82379L5.75035 2.72862L5.86138 2.64138L5.97242 2.54621L6.09138 2.4669L6.20242 2.37966L6.32138 2.29241L6.44035 2.2131L6.55931 2.13379L6.67828 2.05448L6.80518 1.97517L6.92414 1.89586L7.05104 1.82448L7.17793 1.7531L7.30483 1.68172L7.43173 1.61828L7.56656 1.5469L7.69345 1.48345L7.82828 1.42L7.96311 1.36448L8.09 1.30103L8.22483 1.24552L8.36759 1.19L8.50242 1.13448L8.63725 1.0869L8.78 1.03931L8.91483 0.991724L9.05759 0.944138L9.20035 0.904483L9.34311 0.864828L9.48587 0.825172L9.62862 0.785517L9.77138 0.753793L9.91414 0.722069L10.0569 0.690345L10.1997 0.666552L10.3503 0.634828L10.4931 0.611034L10.6438 0.595172L10.7866 0.571379L10.9372 0.555517L11.08 0.539655L11.2307 0.531724L11.3814 0.515862L11.5241 0.507931H11.6748L11.8255 0.5H11.9683H12.119H12.2697L12.4124 0.507931L12.5631 0.515862L12.7138 0.523793L12.8566 0.539655L13.0072 0.547586L13.1579 0.563448L13.3007 0.587241L13.4514 0.603103L13.5941 0.626897L13.7369 0.65069L13.8876 0.682414L14.0303 0.706207L14.1731 0.737931L14.3159 0.777586L14.4586 0.80931L14.6014 0.848966L14.7441 0.888621L14.8869 0.928276L15.0297 0.975862L15.1724 1.02345L15.3072 1.07103L15.4421 1.11862L15.5848 1.17414L15.7197 1.22172L15.8545 1.27724L15.9893 1.34069L16.1241 1.39621L16.251 1.45966L16.3859 1.5231L16.5128 1.58655L16.6476 1.65793L16.7745 1.72931L16.9014 1.80069L17.0283 1.87207L17.1472 1.94345L17.2741 2.02276L17.3931 2.10207L17.5121 2.18138L17.631 2.26069L17.75 2.34793L17.869 2.42724L17.98 2.51448L18.091 2.60172L18.2021 2.6969L18.3131 2.78414L18.4241 2.87931L18.5272 2.97448L18.6383 3.06966L18.7414 3.16483L18.8445 3.26L18.9397 3.3631L19.0428 3.45828L19.1379 3.56138L19.2331 3.66448L19.3283 3.76759L19.4155 3.87862L19.5107 3.98172L19.5979 4.09276L19.6852 4.19586L19.7724 4.3069L19.8517 4.41793L19.931 4.52897L20.0103 4.64L20.0897 4.75897L20.169 4.87L20.2403 4.98897L20.3117 5.1L20.3831 5.21897L20.4466 5.33793L20.5179 5.4569L20.5814 5.57586L20.6448 5.69483L20.7003 5.81379L20.7638 5.93276L20.8193 6.05172L20.8748 6.17862L20.9224 6.29759L20.9779 6.41655L21.0255 6.54345L21.0731 6.66241L21.1128 6.78931L21.1603 6.91621L21.2 7.03517L21.2397 7.16207L21.2714 7.28103L21.311 7.40793L21.3428 7.53483L21.3745 7.65379L21.4062 7.78069L21.43 7.90759L21.4538 8.02655L21.4776 8.15345L21.5014 8.28034L21.5252 8.39931L21.541 8.52621L21.5569 8.6531L21.5728 8.77207L21.5807 8.89897L21.5966 9.01793L21.6045 9.14483L21.6124 9.26379V9.38276L21.6203 9.50965V9.62862V9.74759V9.86655L21.6124 9.98552V10.1045L21.6045 10.2234L21.5966 10.3424L21.5807 10.4534L21.5728 10.5724L21.5569 10.6834L21.541 10.8024L21.5252 10.9134L21.5093 11.0245L21.4935 11.1434L21.4697 11.2545L21.4459 11.3576L21.4221 11.4686L21.3983 11.5797L21.3745 11.6907L21.3428 11.7938L21.311 11.8969L21.2872 12.0079L21.2555 12.111L21.2159 12.2141L21.1841 12.3093L21.1524 12.4124L21.1128 12.5155L21.0731 12.6107L21.0335 12.7059L20.9938 12.809L20.9541 12.9041L20.9066 12.9914L20.8669 13.0866L20.8193 13.1817L20.7797 13.269L20.7321 13.3562L20.6845 13.4514L20.6369 13.5386L20.5893 13.6179L20.5338 13.7052L20.4862 13.7845L20.4307 13.8717L20.3831 13.951L20.3276 14.0303L20.2721 14.1097L20.2245 14.189L20.169 14.2603L20.1135 14.3397L20.05 14.411L19.9945 14.4824L19.939 14.5538L19.8835 14.6252L19.8279 14.6886L19.7645 14.76L19.709 14.8234L19.6455 14.8869L19.59 14.9503L19.5266 15.0138L19.4631 15.0693L19.4076 15.1328L19.3441 15.1883L19.2807 15.2438L19.2252 15.2993L19.1617 15.3548L19.0983 15.4103L19.0348 15.4579L18.9793 15.5134L18.9159 15.561L18.8524 15.6086L18.789 15.6562L18.7255 15.6959L18.67 15.7434L18.6066 15.791L18.5431 15.8307L18.4797 15.8703L18.4162 15.91L18.3607 15.9497L18.2972 15.9893L18.2338 16.021L18.1783 16.0607L18.1148 16.0924L18.0514 16.1321L17.9959 16.1638L17.9324 16.1955L17.8769 16.2272L17.8135 16.251L17.7579 16.2828L17.7024 16.3066L17.639 16.3383L17.5835 16.3621L17.5279 16.3859L17.4724 16.4097L17.4169 16.4334L17.3614 16.4572L17.3059 16.481L17.2503 16.4969L17.1948 16.5207L17.1393 16.5366L17.0838 16.5603L17.0362 16.5762L16.9807 16.5921L16.9252 16.6079L16.8776 16.6238L16.83 16.6397L16.7745 16.6555L16.7269 16.6714L16.6793 16.6872L16.6317 16.6952L16.5841 16.711L16.5366 16.7269L16.489 16.7348L16.4414 16.7507L16.3938 16.7586L16.3541 16.7666L16.3066 16.7824L16.2669 16.7903L16.2193 16.7983L16.1797 16.8062L16.14 16.8141L16.1003 16.8221L16.0607 16.83L16.021 16.8459L15.9814 16.8538L15.9417 16.8617H15.9021L15.8624 16.8697L15.8307 16.8776L15.791 16.8855L15.7593 16.8934L15.7197 16.9014L15.6879 16.9093L15.6562 16.9172L15.6245 16.9252L15.5928 16.9331L15.561 16.941L15.5293 16.949L15.4976 16.9569L15.4659 16.9648L15.4341 16.9728L15.4103 16.9807L15.3786 16.9886L15.3469 16.9966L15.3231 17.0045L15.2914 17.0124L15.2676 17.0203L15.2438 17.0283L15.2121 17.0362L15.1883 17.0521L15.1645 17.06L15.1407 17.0679L15.1169 17.0838L15.0931 17.0917L15.0693 17.0997L15.0455 17.1155L15.0217 17.1234L14.9979 17.1393L14.9741 17.1552L14.9503 17.1631L14.9266 17.179L14.9107 17.1948L14.8869 17.2107L14.8631 17.2186L14.8393 17.2345L14.8235 17.2503L14.7997 17.2662L14.7759 17.29L14.7521 17.3059L14.7362 17.3217L14.7124 17.3376L14.6886 17.3614L14.6728 17.3772L14.649 17.401L14.6252 17.4169L14.6093 17.4407L14.5855 17.4645L14.5617 17.4803L14.5459 17.5041L14.5221 17.5279L14.4983 17.5517L14.4745 17.5755L14.4507 17.5993L14.4269 17.6231L14.411 17.6469L14.3872 17.6786L14.3635 17.7024L14.3397 17.7262L14.3079 17.7579L14.2841 17.7817L14.2603 17.8134L14.2366 17.8452L14.2128 17.869L14.181 17.9007L14.1572 17.9324L14.1255 17.9641L14.1017 17.9959L14.07 18.0276L14.0462 18.0593L14.0145 18.091L13.9828 18.1228L13.951 18.1545L13.9193 18.1862L13.8876 18.2179L13.8559 18.2576L13.8241 18.2893L13.7924 18.321L13.7528 18.3607L13.721 18.3924L13.6814 18.4321L13.6417 18.4638L13.61 18.5034L13.5703 18.5352L13.5307 18.5748L13.491 18.6145L13.4435 18.6462L13.4038 18.6859L13.3641 18.7176L13.3166 18.7572L13.2769 18.7969L13.2293 18.8286L13.1817 18.8683L13.1341 18.9079L13.0866 18.9397L13.039 18.9793L12.9835 19.019L12.9359 19.0507L12.8803 19.0903L12.8248 19.13L12.7772 19.1617L12.7217 19.2014L12.6662 19.2331L12.6028 19.2728L12.5472 19.3045L12.4917 19.3441L12.4283 19.3759L12.3648 19.4155L12.3014 19.4472L12.2379 19.479L12.1745 19.5186L12.111 19.5503L12.0476 19.5821L11.9762 19.6138L11.9048 19.6455L11.8414 19.6772L11.77 19.709L11.6986 19.7407L11.6272 19.7645L11.5479 19.7962L11.4766 19.8279L11.3972 19.8517L11.3259 19.8755L11.2466 19.9072L11.1672 19.931L11.0879 19.9548L11.0086 19.9786L10.9214 20.0024L10.8421 20.0262L10.7628 20.0421L10.6755 20.0659L10.5883 20.0817L10.501 20.1055L10.4138 20.1214L10.3266 20.1372L10.2393 20.1531L10.1521 20.169L10.0569 20.1769L9.96966 20.1928L9.87449 20.2007L9.77931 20.2086L9.68414 20.2245H9.5969L9.50173 20.2324L9.39862 20.2403H9.30345L9.20828 20.2483H9.11311H9.01L8.91483 20.2403H8.81173L8.70862 20.2324H8.60552L8.51035 20.2245L8.40725 20.2166L8.30414 20.2007L8.20104 20.1928L8.09794 20.1769L7.99483 20.161L7.8838 20.1452L7.78069 20.1293L7.67759 20.1134L7.57449 20.0897L7.46345 20.0659L7.36035 20.0421L7.25725 20.0183L7.14621 19.9866L7.04311 19.9628L6.93207 19.931L6.82897 19.8993L6.71794 19.8597L6.61483 19.8279L6.51173 19.7883L6.40069 19.7486L6.29759 19.709L6.18656 19.6693L6.08345 19.6217L5.97242 19.5741L5.86931 19.5266L5.76621 19.479L5.65518 19.4234L5.55207 19.3759L5.44897 19.3203L5.33793 19.2648L5.23483 19.2014L5.13173 19.1459L5.02862 19.0824L4.92552 19.019L4.82242 18.9555L4.71931 18.8841L4.61621 18.8207L4.52104 18.7493L4.41793 18.6779L4.32276 18.5986L4.21966 18.5272L4.12449 18.4479L4.02138 18.3686L3.92621 18.2893L3.83104 18.2021L3.73587 18.1228L3.64069 18.0355L3.55345 17.9483L3.45828 17.8531L3.37104 17.7659L3.27587 17.6707L3.18862 17.5755L3.10138 17.4803L3.01414 17.3852L2.9269 17.29L2.84759 17.1869L2.76035 17.0838L2.68104 16.9807L2.60173 16.8776L2.52242 16.7666L2.44311 16.6634L2.3638 16.5524L2.29242 16.4414L2.21311 16.3303L2.14173 16.2193L2.07035 16.1003L2.0069 15.9814L1.93552 15.8703L1.87207 15.7514L1.80862 15.6245L1.74518 15.5055L1.68173 15.3866L1.61828 15.2597L1.56276 15.1328L1.50725 15.0059L1.45173 14.879L1.40414 14.7521L1.34862 14.6252L1.30104 14.4903L1.25345 14.3634L1.20587 14.2286L1.16621 14.0938L1.12656 13.959L1.0869 13.8241L1.04725 13.6893L1.00759 13.5545L0.975866 13.4197L0.944142 13.2769L0.912418 13.1421L0.888625 12.9993L0.864831 12.8566L0.841038 12.7217L0.817245 12.579L0.793452 12.4362L0.77759 12.2934L0.761728 12.1507L0.753797 12.0079L0.737935 11.8652L0.730004 11.7224L0.722073 11.5717V11.429L0.714142 11.2862V11.1434V10.9928L0.722073 10.85L0.730004 10.7072L0.737935 10.5566L0.745866 10.4138L0.761728 10.271L0.769659 10.1203L0.793452 9.97759L0.809314 9.83483L0.833107 9.68414L0.8569 9.54138L0.880694 9.39862L0.904487 9.25586L0.936211 9.10517L0.967935 8.96241L1.00759 8.81966L1.03931 8.6769L1.07897 8.53414L1.11862 8.39138L1.16621 8.25655L1.20587 8.11379L1.25345 7.97103L1.30104 7.83621L1.35656 7.69345L1.41207 7.55862L1.46759 7.41586L1.52311 7.28103L1.57862 7.14621L1.64207 7.01138L1.70552 6.87655L1.7769 6.74172L1.84035 6.61483L1.91173 6.48L1.98311 6.3531L2.05449 6.22621L2.1338 6.09931L2.20518 5.97241L2.28449 5.84552L2.37173 5.71862L2.45104 5.59966L2.53828 5.47276L2.62552 5.35379L2.71276 5.23483L2.8 5.11586L2.89518 5.00483L2.99035 4.88586L3.08552 4.77483L3.18069 4.66379L3.27587 4.55276L3.37897 4.44172L3.48207 4.33862L3.58518 4.22759L3.68828 4.12448L3.79138 4.02138L3.90242 3.92621L4.00552 3.8231L4.11656 3.72793L4.22759 3.63276L4.34656 3.53759L4.45759 3.44241L4.57656 3.35517L4.68759 3.26793L4.80656 3.18069L4.92552 3.09345L5.04449 3.01414L5.17138 2.93483L5.29035 2.85552L5.41725 2.77621L5.53621 2.6969L5.66311 2.62552L5.79 2.55414L5.9169 2.48276L6.0438 2.41931L6.17862 2.35586L6.30552 2.29241L6.43242 2.22897L6.56725 2.16552L6.69414 2.11L6.82897 2.05448L6.9638 2.0069L7.09862 1.95138L7.23345 1.90379L7.36828 1.85621L7.50311 1.80862L7.63794 1.76897L7.77276 1.72931L7.90759 1.68966L8.04242 1.65L8.17725 1.61828L8.32 1.58655L8.45483 1.55483L8.58966 1.53103L8.73242 1.49931L8.86725 1.47552L9.00207 1.45966L9.14483 1.43586L9.27966 1.42L9.41449 1.40414L9.54931 1.38828L9.69207 1.38034L9.8269 1.36448H9.96173L10.1045 1.35655L10.2393 1.34862H10.3741H10.509L10.6438 1.35655H10.7786L10.9135 1.36448L11.0483 1.37241L11.1831 1.38034L11.31 1.39621L11.4448 1.41207L11.5797 1.42793L11.7066 1.44379L11.8414 1.46759L11.9683 1.48345L12.0952 1.50724L12.2221 1.53897L12.349 1.56276L12.4759 1.59448L12.6028 1.61828L12.7297 1.65793L12.8566 1.68966L12.9755 1.72138L13.0945 1.76103L13.2214 1.80069L13.3403 1.84034L13.4593 1.88L13.5783 1.92759L13.6893 1.97517L13.8083 2.02276L13.9193 2.07034L14.0383 2.11793L14.1493 2.17345L14.2603 2.22103L14.3714 2.27655L14.4745 2.33207L14.5855 2.38759L14.6886 2.4431L14.7997 2.50655L14.9028 2.57L15.0059 2.62552L15.101 2.68897L15.2041 2.75241L15.2993 2.82379L15.3945 2.88724L15.4897 2.95069L15.5848 3.02207L15.68 3.09345L15.7672 3.16483L15.8624 3.23621L15.9497 3.30759L16.0369 3.37897L16.1241 3.45034L16.2035 3.52966L16.2907 3.60103L16.37 3.68034L16.4493 3.75965L16.5286 3.83897L16.6 3.91828L16.6793 3.99759L16.7507 4.0769L16.8221 4.15621L16.8935 4.23552L16.9569 4.31483L17.0283 4.40207L17.0917 4.48138L17.1552 4.56069L17.2186 4.64793L17.2821 4.72724L17.3376 4.81448L17.401 4.90172L17.4566 4.98103L17.5121 5.06828L17.5676 5.15552L17.6152 5.23483L17.6707 5.32207L17.7183 5.40931L17.7659 5.49655L17.8135 5.58379L17.8531 5.6631L17.9007 5.75034L17.9403 5.83759L17.98 5.92483L18.0197 6.00414L18.0593 6.09138L18.091 6.17862L18.1307 6.26586L18.1624 6.34517L18.1941 6.43241L18.2259 6.51966L18.2497 6.59897L18.2814 6.68621L18.3052 6.77345L18.329 6.85276L18.3607 6.94L18.3766 7.01931L18.4003 7.09862L18.4241 7.18586L18.44 7.26517L18.4559 7.34448L18.4797 7.42379L18.4955 7.51103L18.5035 7.59034L18.5193 7.66966L18.5352 7.74103L18.5431 7.82034L18.551 7.89966L18.5669 7.97897L18.5748 8.05034L18.5828 8.12965V8.20103L18.5907 8.28034L18.5986 8.35172V8.4231V8.49448L18.6066 8.56586V8.63724V8.70862V8.78L18.5986 8.85138V8.91483V8.98621L18.5907 9.04966V9.1131L18.5828 9.18448V9.24793L18.5748 9.31138L18.5669 9.3669L18.559 9.43034L18.551 9.49379L18.5431 9.55724L18.5352 9.61276L18.5272 9.66828L18.5193 9.73172L18.5035 9.78724L18.4955 9.84276L18.4876 9.89828L18.4717 9.95379L18.4638 10.0093L18.4559 10.0569L18.44 10.1124L18.4321 10.16L18.4162 10.2155L18.4083 10.2631L18.3924 10.3107L18.3766 10.3583L18.3686 10.4059L18.3528 10.4534L18.3369 10.501L18.329 10.5407L18.3131 10.5883L18.2972 10.6359L18.2893 10.6755L18.2735 10.7152L18.2576 10.7628L18.2497 10.8024L18.2338 10.8421L18.2259 10.8817L18.21 10.9214L18.1941 10.9531L18.1862 10.9928L18.1703 11.0324L18.1624 11.0641L18.1466 11.1038L18.1386 11.1355L18.1228 11.1752L18.1148 11.2069L18.1069 11.2386L18.091 11.2703L18.0831 11.3021L18.0752 11.3338L18.0593 11.3655L18.0514 11.3972L18.0435 11.429L18.0355 11.4607L18.0276 11.4924L18.0197 11.5241L18.0117 11.5479L18.0038 11.5797L17.9959 11.6034L17.9879 11.6352V11.6669L17.98 11.6907L17.9721 11.7224V11.7462L17.9641 11.77V11.8017L17.9562 11.8255V11.8493V11.881L17.9483 11.9048V11.9286V11.9603V11.9841" stroke="#7B61C1" stroke-width="0.7"/>
</svg>
