<svg width="24" height="24" viewBox="0 0 24 24" fill="none" xmlns="http://www.w3.org/2000/svg">
<path d="M7.31868 14.144C8.52036 14.144 9.49451 13.1699 9.49451 11.9682C9.49451 10.7665 8.52036 9.79236 7.31868 9.79236C6.11701 9.79236 5.14286 10.7665 5.14286 11.9682C5.14286 13.1699 6.11701 14.144 7.31868 14.144ZM2.17582 18.4957C3.3775 18.4957 4.35165 17.5215 4.35165 16.3198C4.35165 15.1182 3.3775 14.144 2.17582 14.144C0.97415 14.144 0 15.1182 0 16.3198C0 17.5215 0.97415 18.4957 2.17582 18.4957ZM21.8242 18.4957C23.0259 18.4957 24 17.5215 24 16.3198C24 15.1182 23.0259 14.144 21.8242 14.144C20.6225 14.144 19.6484 15.1182 19.6484 16.3198C19.6484 17.5215 20.6225 18.4957 21.8242 18.4957Z" fill="black"/>
<path d="M14.678 12.0599C14.6084 11.3329 14.573 10.7279 14.0161 10.3027C13.3109 9.76412 12.512 10.1136 11.5279 9.75836C10.561 9.52444 9.84375 8.66592 9.84375 7.64263C9.84375 6.43936 10.8354 5.46393 12.0587 5.46393C12.9647 5.46393 13.7437 5.999 14.0868 6.76542C14.612 7.76288 14.2707 8.77799 14.9305 9.28932C15.7117 9.89476 16.765 9.45139 17.9402 10.025C18.3178 10.1986 18.6375 10.4738 18.8627 10.8149C19.0879 11.156 19.2188 11.563 19.2188 12C19.2188 13.0233 18.5015 13.8818 17.5346 14.1158C16.5505 14.4709 15.7516 14.1215 15.0464 14.6601C14.2533 15.2657 14.6779 16.2788 14.0315 17.349C13.6646 18.0538 12.9189 18.5361 12.0587 18.5361C10.8354 18.5361 9.84375 17.5607 9.84375 16.3574C9.84375 15.4833 10.3671 14.7295 11.1223 14.3824C12.2975 13.8088 13.3508 14.2522 14.132 13.6467C14.5827 13.2974 14.678 12.7586 14.678 12.0599Z" fill="#D0021B"/>
</svg>
