<svg width="24" height="24" viewBox="0 0 24 24" fill="none" xmlns="http://www.w3.org/2000/svg">
<path d="M19.7328 8.24439C19.4838 8.1587 19.2259 8.07761 18.9602 8.00093C19.0039 7.82275 19.044 7.64687 19.0796 7.47398C19.6644 4.63513 19.282 2.34814 17.9763 1.59516C16.7243 0.873154 14.6767 1.62596 12.6087 3.42565C12.4099 3.59871 12.2104 3.78194 12.0111 3.97396C11.8783 3.84691 11.7457 3.72414 11.6134 3.6067C9.44613 1.68235 7.27375 0.871402 5.96931 1.62656C4.71847 2.35066 4.34805 4.50065 4.87449 7.19105C4.92532 7.45092 4.98475 7.71629 5.05194 7.98611C4.74449 8.07338 4.44767 8.16643 4.16367 8.26541C1.62275 9.15129 0 10.5397 0 11.9798C0 13.4672 1.74202 14.959 4.38859 15.8636C4.59745 15.935 4.81417 16.0025 5.0375 16.0666C4.96501 16.3584 4.90195 16.6444 4.84903 16.9233C4.34707 19.567 4.73906 21.6662 5.98656 22.3857C7.27512 23.1288 9.43767 22.365 11.5435 20.5243C11.7099 20.3788 11.8769 20.2245 12.0443 20.0627C12.2611 20.2716 12.4777 20.4693 12.6931 20.6547C14.7328 22.4099 16.7473 23.1187 17.9937 22.3971C19.2809 21.6519 19.6993 19.3969 19.1561 16.6532C19.1147 16.4437 19.0664 16.2296 19.0122 16.0118C19.164 15.9669 19.3131 15.9205 19.4585 15.8723C22.2099 14.9607 24 13.487 24 11.9798C24 10.5345 22.3249 9.13672 19.7328 8.24439ZM19.1361 14.8991C19.0048 14.9426 18.8702 14.9846 18.733 15.0253C18.4292 14.0637 18.0193 13.0412 17.5176 11.9848C17.9963 10.9535 18.3904 9.94412 18.6857 8.98878C18.9312 9.05982 19.1695 9.13476 19.3991 9.21383C21.62 9.97838 22.9747 11.1088 22.9747 11.9798C22.9747 12.9076 21.5117 14.112 19.1361 14.8991ZM18.1504 16.8524C18.3905 18.0656 18.4248 19.1624 18.2657 20.0199C18.1228 20.7904 17.8353 21.3041 17.4799 21.5098C16.7236 21.9476 15.1061 21.3786 13.3617 19.8775C13.1618 19.7054 12.9603 19.5217 12.7583 19.3272C13.4345 18.5876 14.1104 17.7278 14.77 16.7729C15.9303 16.6699 17.0264 16.5016 18.0204 16.2718C18.0694 16.4693 18.1129 16.663 18.1504 16.8524ZM8.18214 21.4342C7.44318 21.6952 6.85463 21.7026 6.49886 21.4975C5.74182 21.0609 5.42711 19.3754 5.8564 17.1145C5.90557 16.8556 5.96409 16.5896 6.03155 16.3177C7.0147 16.5351 8.10281 16.6916 9.26581 16.7858C9.92989 17.7203 10.6253 18.5791 11.3261 19.3312C11.1729 19.479 11.0204 19.6197 10.8688 19.7523C9.93762 20.5662 9.0045 21.1437 8.18214 21.4342ZM4.72018 14.8935C3.54992 14.4935 2.58347 13.9736 1.92102 13.4063C1.32576 12.8966 1.02523 12.3905 1.02523 11.9798C1.02523 11.1059 2.32814 9.9912 4.50116 9.23357C4.76482 9.14163 5.04084 9.055 5.32727 8.97362C5.62759 9.95053 6.02155 10.9719 6.49698 12.0047C6.0154 13.0529 5.61584 14.0906 5.31258 15.0789C5.10838 15.0202 4.91054 14.9585 4.72018 14.8935ZM5.88066 6.99416C5.42963 4.68909 5.72918 2.95023 6.48297 2.51389C7.28588 2.04906 9.06136 2.71181 10.9326 4.37339C11.0523 4.47959 11.1723 4.59075 11.2928 4.70575C10.5955 5.4545 9.90644 6.30693 9.24825 7.23582C8.11952 7.34044 7.03905 7.5085 6.04565 7.73355C5.98319 7.48232 5.92787 7.23548 5.88066 6.99416ZM16.2332 9.55046C15.9957 9.14027 15.7519 8.73977 15.5034 8.35021C16.2691 8.44701 17.0028 8.57551 17.6918 8.73276C17.4849 9.39569 17.2271 10.0888 16.9236 10.7994C16.7059 10.3861 16.4757 9.96933 16.2332 9.55046ZM12.0114 5.43848C12.4844 5.95081 12.9579 6.52283 13.4238 7.14346C12.9544 7.12129 12.4791 7.10976 12 7.10976C11.5254 7.10976 11.0537 7.12103 10.5872 7.14282C11.0535 6.52796 11.5312 5.95671 12.0114 5.43848ZM7.76268 9.55755C7.52546 9.9689 7.29947 10.3834 7.08519 10.7986C6.78662 10.0905 6.5312 9.39423 6.32255 8.72191C7.00731 8.56868 7.73752 8.44338 8.4984 8.34841C8.24635 8.74156 8.00054 9.14509 7.76268 9.55755ZM8.52031 15.6843C7.73418 15.5966 6.993 15.4778 6.30841 15.3288C6.52039 14.6444 6.78145 13.9333 7.08634 13.21C7.30118 13.6249 7.52806 14.0395 7.76674 14.4518C8.00985 14.8718 8.26177 15.2831 8.52031 15.6843ZM12.0398 18.5934C11.5539 18.0691 11.0692 17.4891 10.5958 16.8653C11.0553 16.8833 11.5238 16.8926 12 16.8926C12.4892 16.8926 12.9728 16.8815 13.4488 16.8604C12.9814 17.4954 12.5095 18.0763 12.0398 18.5934ZM16.9334 13.1731C17.2542 13.9042 17.5246 14.6117 17.7393 15.2843C17.0434 15.4431 16.2921 15.5709 15.5005 15.666C15.7497 15.2711 15.9956 14.8638 16.2373 14.4447C16.4818 14.0208 16.7139 13.5962 16.9334 13.1731ZM15.3492 13.9325C14.974 14.583 14.5889 15.204 14.1978 15.7901C13.4857 15.8411 12.7499 15.8673 12 15.8673C11.2531 15.8673 10.5266 15.8441 9.82706 15.7987C9.42029 15.2048 9.02675 14.582 8.65398 13.9381C8.28219 13.296 7.94009 12.6484 7.63003 12.0044C7.94001 11.359 8.28129 10.7106 8.65095 10.0696L8.65086 10.0698C9.0215 9.42704 9.41157 8.80727 9.81459 8.21714C10.5283 8.16318 11.2603 8.13503 12 8.13503C12.743 8.13503 13.4759 8.16339 14.1894 8.21782C14.5863 8.80363 14.9737 9.4214 15.3458 10.0642C15.7221 10.7142 16.0678 11.3582 16.3804 11.9898C16.0688 12.6323 15.7238 13.2828 15.3492 13.9325ZM17.4642 2.48339C18.2679 2.94685 18.5804 4.81601 18.0755 7.26705C18.0433 7.42345 18.007 7.58275 17.9676 7.74419C16.9719 7.51444 15.8907 7.34348 14.7586 7.23728C14.0992 6.29817 13.4158 5.44442 12.7298 4.70528C12.9142 4.52786 13.0984 4.35869 13.2818 4.19905C15.0536 2.65708 16.7097 2.04829 17.4642 2.48339ZM12 9.83668C13.1836 9.83668 14.1431 10.7962 14.1431 11.9798C14.1431 13.1634 13.1836 14.1229 12 14.1229C10.8164 14.1229 9.85688 13.1634 9.85688 11.9798C9.85688 10.7962 10.8164 9.83668 12 9.83668Z" fill="#30A2FF"/>
</svg>
