<svg width="24" height="24" viewBox="0 0 24 24" fill="none" xmlns="http://www.w3.org/2000/svg">
<path d="M16.6295 16.5201C17.5152 16.4284 18.1871 15.6649 18.1565 14.7487C18.126 13.8325 17.3624 13.0995 16.4462 13.0995H16.3851C15.4384 13.13 14.7054 13.9241 14.7359 14.8709C14.7665 15.329 14.9497 15.726 15.2246 16.0009C14.1862 18.0471 12.5981 19.5436 10.2159 20.7958C8.59718 21.651 6.91742 21.9564 5.23767 21.7426C3.86332 21.5593 2.79439 20.9485 2.12249 19.9407C1.14517 18.4442 1.05355 16.8255 1.87816 15.2068C2.45844 14.0462 3.37467 13.1911 3.95495 12.7635C3.83278 12.3665 3.64954 11.6946 3.55791 11.2059C-0.870534 14.4127 -0.412419 18.7496 0.931386 20.7958C1.93924 22.3229 3.98549 23.2696 6.24552 23.2696C6.85634 23.2696 7.46716 23.2085 8.07798 23.0558C11.9872 22.2923 14.9497 19.9712 16.6295 16.5201Z" fill="#764ABC"/>
<path d="M22.0047 12.733C19.6836 10.0149 16.263 8.51834 12.3537 8.51834H11.8651C11.5902 7.9686 11.0099 7.60211 10.3686 7.60211H10.3075C9.3607 7.63265 8.62772 8.42672 8.65826 9.37349C8.6888 10.2897 9.45232 11.0227 10.3686 11.0227H10.4296C11.1015 10.9922 11.6818 10.5646 11.9261 9.98431H12.4759C14.797 9.98431 16.996 10.6562 18.9811 11.9695C20.5082 12.9773 21.6076 14.2906 22.2185 15.8787C22.7377 17.1614 22.7071 18.4136 22.1574 19.4826C21.3022 21.1012 19.8668 21.9869 17.9733 21.9869C16.7516 21.9869 15.5911 21.6204 14.9802 21.3456C14.6443 21.651 14.0335 22.1396 13.6059 22.445C14.9192 23.0559 16.263 23.3918 17.5457 23.3918C20.4776 23.3918 22.646 21.7731 23.4706 20.1545C24.3563 18.3831 24.2953 15.329 22.0047 12.733Z" fill="#764ABC"/>
<path d="M6.48985 17.0393C6.52039 17.9555 7.28392 18.6885 8.20015 18.6885H8.26123C9.208 18.6579 9.94098 17.8639 9.91044 16.9171C9.8799 16.0009 9.11638 15.2679 8.20015 15.2679H8.13907C8.07798 15.2679 7.98636 15.2679 7.92528 15.2984C6.6731 13.2217 6.1539 10.9616 6.33715 8.51834C6.45931 6.68588 7.07013 5.09774 8.13907 3.78448C9.02475 2.65446 10.7351 2.10472 11.8956 2.07418C15.133 2.0131 16.5073 6.04452 16.5989 7.66319C16.996 7.75481 17.6679 7.9686 18.126 8.1213C17.7595 3.17366 14.7054 0.608215 11.7734 0.608215C9.02475 0.608215 6.48985 2.59338 5.482 5.52532C4.07711 9.43457 4.99334 13.1911 6.70364 16.1536C6.55093 16.3674 6.45931 16.7033 6.48985 17.0393Z" fill="#764ABC"/>
</svg>
