<svg width="24" height="24" viewBox="0 0 24 24" fill="none" xmlns="http://www.w3.org/2000/svg">
<path d="M20.6659 13.3474C19.8286 13.3518 19.1009 13.5534 18.4916 13.8515C18.268 13.4088 18.0444 13.0142 18.005 12.7249C17.9611 12.3874 17.9085 12.1813 17.9611 11.778C18.0137 11.3747 18.2505 10.8005 18.2461 10.7566C18.2417 10.7128 18.1935 10.5068 17.7113 10.5024C17.2291 10.498 16.8126 10.5944 16.7644 10.7216C16.7162 10.8487 16.6241 11.138 16.5627 11.4361C16.4795 11.8745 15.5983 13.4395 15.0942 14.2592C14.932 13.9392 14.7917 13.6586 14.761 13.4351C14.7172 13.0975 14.6646 12.8915 14.7172 12.4882C14.7698 12.0849 15.0065 11.5106 15.0021 11.4668C14.9978 11.423 14.9495 11.2169 14.4673 11.2125C13.9851 11.2082 13.5687 11.3046 13.5205 11.4317C13.4722 11.5589 13.4196 11.8569 13.3188 12.1463C13.218 12.4356 12.0475 15.0483 11.7407 15.7234C11.5829 16.0697 11.447 16.3458 11.3505 16.5343C11.3505 16.5343 11.3461 16.5475 11.333 16.5694C11.2497 16.7316 11.2015 16.8193 11.2015 16.8193C11.2015 16.8193 11.2015 16.8193 11.2015 16.8237C11.1357 16.942 11.0656 17.0516 11.0305 17.0516C11.0042 17.0516 10.956 16.736 11.0393 16.3064C11.2146 15.399 11.6311 13.9874 11.6267 13.9392C11.6267 13.9129 11.7056 13.6674 11.3549 13.5403C11.013 13.4132 10.8902 13.6236 10.8596 13.6236C10.8289 13.6236 10.807 13.6981 10.807 13.6981C10.807 13.6981 11.1883 12.1112 10.0793 12.1112C9.38664 12.1112 8.43099 12.8696 7.95755 13.5534C7.65946 13.7156 7.02383 14.0619 6.34435 14.4346C6.08572 14.5792 5.81831 14.7239 5.56844 14.8598C5.55091 14.8422 5.53337 14.8203 5.51584 14.8028C4.17443 13.3693 1.69325 12.3567 1.79846 10.4322C1.83792 9.73086 2.07902 7.88971 6.56354 5.65402C10.2546 3.83479 13.1917 4.33892 13.7002 5.45676C14.4279 7.05242 12.1264 10.0158 8.31263 10.4454C6.85725 10.6076 6.09448 10.0465 5.9016 9.83607C5.69995 9.61688 5.66927 9.60373 5.59474 9.64757C5.472 9.71332 5.55091 9.91059 5.59474 10.0246C5.70872 10.3227 6.17777 10.8487 6.97122 11.1073C7.67261 11.3353 9.37787 11.4624 11.4426 10.6646C13.7528 9.77031 15.5589 7.28476 15.0285 5.2025C14.498 3.08956 10.9911 2.39256 7.67261 3.57177C5.69995 4.27316 3.56071 5.37785 2.02203 6.8157C0.194032 8.52534 -0.0952919 10.0114 0.0230678 10.6339C0.448286 12.8433 3.49495 14.2811 4.71362 15.3464C4.65225 15.3814 4.59526 15.4121 4.54704 15.4384C3.93771 15.7409 1.61435 16.9552 1.0357 18.2396C0.378147 19.695 1.14091 20.7383 1.64503 20.8786C3.21001 21.3126 4.81883 20.5323 5.68242 19.2435C6.546 17.9547 6.44079 16.2801 6.04188 15.5129C6.0375 15.5042 6.03311 15.4954 6.02434 15.4866C6.18216 15.3946 6.34435 15.2981 6.50217 15.2061C6.81341 15.022 7.12027 14.851 7.38329 14.7107C7.23424 15.1184 7.12465 15.605 7.07205 16.3064C7.00629 17.1305 7.34384 18.2002 7.78659 18.621C7.98385 18.8051 8.21619 18.8095 8.36524 18.8095C8.88251 18.8095 9.11485 18.3799 9.37349 17.8714C9.68911 17.2489 9.97405 16.5256 9.97405 16.5256C9.97405 16.5256 9.61897 18.4807 10.5834 18.4807C10.9341 18.4807 11.2892 18.0248 11.447 17.7925V17.7969C11.447 17.7969 11.4557 17.7837 11.4733 17.753C11.5083 17.696 11.5303 17.661 11.5303 17.661V17.6522C11.6705 17.4067 11.9862 16.85 12.4552 15.925C13.0602 14.7326 13.6432 13.2422 13.6432 13.2422C13.6432 13.2422 13.6958 13.606 13.8755 14.211C13.9807 14.5661 14.1999 14.9562 14.3753 15.3332C14.235 15.5305 14.1473 15.6401 14.1473 15.6401C14.1473 15.6401 14.1473 15.6401 14.1517 15.6445C14.0377 15.7935 13.915 15.9557 13.7791 16.1135C13.3013 16.6834 12.7314 17.3366 12.6525 17.5251C12.5604 17.7486 12.5823 17.9108 12.7577 18.0423C12.8848 18.1388 13.1128 18.1519 13.3451 18.1388C13.7747 18.1081 14.0772 18.0029 14.2262 17.9371C14.4586 17.8538 14.7304 17.7267 14.9846 17.5382C15.4537 17.1919 15.7386 16.6965 15.7123 16.0434C15.6992 15.6839 15.5808 15.3244 15.4361 14.9869C15.48 14.9255 15.5194 14.8642 15.5633 14.8028C16.3041 13.72 16.8784 12.532 16.8784 12.532C16.8784 12.532 16.931 12.8959 17.1107 13.5008C17.1984 13.8077 17.3781 14.1409 17.5359 14.4652C16.8389 15.0307 16.4093 15.6883 16.2559 16.1179C15.9797 16.9157 16.1945 17.2752 16.6022 17.3585C16.7863 17.3979 17.0493 17.3103 17.2422 17.227C17.4877 17.1481 17.777 17.0122 18.0532 16.8105C18.5223 16.4642 18.9738 15.982 18.9475 15.3288C18.9343 15.0307 18.8554 14.737 18.7458 14.4521C19.3376 14.2066 20.1004 14.0707 21.0736 14.1847C23.1602 14.4302 23.5723 15.7321 23.4934 16.2801C23.4145 16.8281 22.9761 17.1261 22.8314 17.2182C22.6868 17.3103 22.6385 17.3409 22.6517 17.4067C22.6692 17.5031 22.7394 17.4988 22.8621 17.4812C23.0331 17.4505 23.958 17.0385 23.9975 16.0302C24.0632 14.7414 22.8358 13.3343 20.6659 13.3474ZM4.56896 18.7744C3.87633 19.5284 2.91192 19.8134 2.49547 19.5722C2.04833 19.3136 2.22368 18.2002 3.07412 17.4023C3.59139 16.9157 4.25772 16.4642 4.70047 16.188C4.80129 16.1267 4.95034 16.039 5.13007 15.9294C5.16076 15.9119 5.17829 15.9031 5.17829 15.9031C5.21336 15.8812 5.24843 15.8593 5.2835 15.8373C5.59474 16.9771 5.29665 17.981 4.56896 18.7744ZM9.6102 15.3464C9.3691 15.9338 8.86498 17.4374 8.55812 17.3541C8.2951 17.284 8.1329 16.1442 8.50551 15.0176C8.69401 14.4521 9.09293 13.777 9.32526 13.514C9.70226 13.0932 10.1187 12.9529 10.2195 13.1238C10.3467 13.3474 9.75925 14.9781 9.6102 15.3464ZM13.7703 17.3366C13.6695 17.3892 13.5731 17.4242 13.5292 17.3979C13.4985 17.3804 13.5731 17.3103 13.5731 17.3103C13.5731 17.3103 14.0947 16.7491 14.3008 16.4949C14.4191 16.3458 14.5594 16.1705 14.7084 15.9732V16.0302C14.7084 16.7009 14.0597 17.1524 13.7703 17.3366ZM16.9792 16.6045C16.9047 16.5519 16.9178 16.3765 17.1677 15.8286C17.2641 15.6138 17.4921 15.2543 17.8822 14.908C17.9261 15.0483 17.9568 15.1842 17.9524 15.3113C17.948 16.1574 17.343 16.473 16.9792 16.6045Z" fill="#CD6799"/>
</svg>
