<svg width="24" height="24" viewBox="0 0 24 24" fill="none" xmlns="http://www.w3.org/2000/svg">
<path fill-rule="evenodd" clip-rule="evenodd" d="M12.0002 4.8432C8.79995 4.8432 6.80031 6.4337 5.99988 9.6147C7.20005 8.0242 8.60008 7.42788 10.2 7.82527C11.1128 8.05195 11.7656 8.71035 12.4874 9.43929C13.6641 10.6263 15.026 12 18.0001 12C21.1999 12 23.2 10.4095 24 7.22895C22.8003 8.81945 21.4003 9.41577 19.8004 9.01791C18.8871 8.79123 18.2343 8.13284 17.5124 7.40437C16.3358 6.21643 14.9743 4.8432 12.0002 4.8432ZM5.99988 12C2.80007 12 0.799953 13.5905 0 16.7715C1.20016 15.181 2.6002 14.5847 4.19964 14.9821C5.11293 15.2087 5.76568 15.8671 6.48757 16.5961C7.66422 17.7831 9.02569 19.1568 12.0002 19.1568C15.2 19.1568 17.2002 17.5667 18.0001 14.3857C16.8 15.9762 15.3999 16.5726 13.8 16.1752C12.8872 15.948 12.2344 15.2896 11.5126 14.5611C10.3359 13.3742 8.97396 12 5.99988 12Z" fill="#38BDF8"/>
</svg>
