<svg width="24" height="24" viewBox="0 0 24 24" fill="none" xmlns="http://www.w3.org/2000/svg">
<path d="M23.9056 3.5522L12.6458 23.6867C12.4133 24.1024 11.816 24.1049 11.5801 23.6912L0.0969526 3.55414C-0.160119 3.10333 0.225371 2.55728 0.736225 2.64859L12.0081 4.66337C12.08 4.67622 12.1536 4.6761 12.2255 4.663L23.2617 2.65148C23.7709 2.55868 24.1582 3.1005 23.9056 3.5522Z" fill="#A534FE"/>
<path d="M17.3775 0.00590856L9.04491 1.63865C8.90795 1.66549 8.80655 1.78155 8.79829 1.92084L8.28572 10.5778C8.27366 10.7817 8.46092 10.9399 8.65993 10.894L10.9798 10.3586C11.1969 10.3086 11.393 10.4997 11.3484 10.718L10.6592 14.0931C10.6128 14.3203 10.8261 14.5145 11.0479 14.4472L12.4808 14.0118C12.7029 13.9444 12.9164 14.1392 12.8694 14.3665L11.774 19.668C11.7055 19.9997 12.1466 20.1805 12.3306 19.8962L12.4534 19.7063L19.2433 6.1559C19.357 5.92902 19.1609 5.67032 18.9118 5.7184L16.5238 6.17928C16.2994 6.22255 16.1085 6.01356 16.1718 5.79401L17.7304 0.39098C17.7938 0.171059 17.6022 -0.0381044 17.3775 0.00590856Z" fill="#FFDD35"/>
</svg>
