<svg width="24" height="24" viewBox="0 0 24 24" fill="none" xmlns="http://www.w3.org/2000/svg">
<path d="M4.83417 1.73218H16.6255C19.1507 1.73218 21.1959 3.7774 21.1959 6.30261V18.0939C21.1959 20.6191 19.1507 22.6643 16.6255 22.6643H4.83417C2.30895 22.6643 0.263733 20.6191 0.263733 18.0939V6.30261C0.263733 3.7774 2.30895 1.73218 4.83417 1.73218Z" fill="url(#paint0_linear_242_1064)"/>
<path d="M16.2707 2.85913H5.18894C3.08112 2.85913 1.36981 4.57043 1.36981 6.67826V17.76C1.36981 19.8678 3.08112 21.5791 5.18894 21.5791H16.2707C18.3785 21.5791 20.0898 19.8678 20.0898 17.76V6.65739C20.0898 4.54957 18.3785 2.85913 16.2707 2.85913ZM19.7768 17.8017C19.7768 19.7217 18.2324 21.2661 16.3124 21.2661H5.1472C3.24807 21.2661 1.68286 19.7217 1.68286 17.8017V6.61565C1.68286 4.69565 3.2272 3.1513 5.1472 3.1513H16.3333C18.2324 3.1513 19.7976 4.69565 19.7976 6.61565V17.8017H19.7768Z" fill="white"/>
<path d="M10.7611 3.61041C6.04459 3.61041 2.20459 7.45041 2.20459 12.1669C2.20459 16.8835 6.04459 20.7235 10.7611 20.7235C15.4985 20.7235 19.3176 16.8835 19.3176 12.1669C19.3176 7.45041 15.4776 3.61041 10.7611 3.61041ZM10.7611 20.5982C6.1072 20.5982 2.32981 16.8208 2.32981 12.1669C2.32981 7.51302 6.1072 3.73563 10.7611 3.73563C15.415 3.73563 19.1924 7.51302 19.1924 12.1669C19.1924 16.8208 15.415 20.5982 10.7611 20.5982Z" fill="#69C5F3"/>
<path d="M10.7611 5.36346C6.98372 5.36346 3.93677 8.41042 3.93677 12.1878C3.93677 15.9652 6.98372 18.9913 10.7611 18.9913C14.5385 18.9913 17.5855 15.9443 17.5855 12.1669C17.5855 8.38955 14.5176 5.36346 10.7611 5.36346ZM10.7611 18.8452C7.0672 18.8452 4.08285 15.8609 4.08285 12.1669C4.08285 8.47303 7.0672 5.48868 10.7611 5.48868C14.455 5.48868 17.4394 8.47303 17.4394 12.1669C17.4394 15.8609 14.4342 18.8452 10.7611 18.8452Z" fill="#68C5F4"/>
<path d="M4.22897 13.7322H17.2516C17.7942 13.7322 18.2116 14.1704 18.2116 14.6922C18.2116 15.2348 17.7733 15.6522 17.2516 15.6522H4.22897C3.68636 15.6522 3.26897 15.2139 3.26897 14.6922C3.2481 14.1704 3.68636 13.7322 4.22897 13.7322Z" fill="white"/>
<path d="M4.18721 13.92H17.2516C17.669 13.92 18.0237 14.2539 18.0237 14.6922V14.713C18.0237 15.1304 17.6898 15.4852 17.2516 15.4852H4.18721C3.76982 15.4852 3.41504 15.1513 3.41504 14.713V14.6713C3.43591 14.2539 3.76982 13.92 4.18721 13.92Z" fill="#0A93E9"/>
<path d="M3.87418 15.4017H17.5855L17.6898 15.3391H3.76984L3.87418 15.4017Z" fill="#1694EA"/>
<path d="M3.56112 15.1513H17.8776L17.9194 15.0887H3.51938L3.56112 15.1513Z" fill="#319DEC"/>
<path d="M3.43591 14.7548H18.0237V14.6713H3.43591V14.7548Z" fill="#65B1EE"/>
<path d="M3.58199 14.233H17.8985L17.9194 14.2748L17.9403 14.3165H3.54025L3.56112 14.2748L3.58199 14.233Z" fill="#8EC6F3"/>
<path d="M3.89505 13.9826H17.5855L17.6481 14.0035L17.7107 14.0452H3.76984L3.83245 14.0035L3.89505 13.9826Z" fill="#95CAF3"/>
<path d="M16.8759 13.92H16.7715C16.7715 13.92 17.1263 14.1704 17.1263 14.7339C17.1263 15.2556 16.7715 15.4852 16.7715 15.4852H16.8759C16.8759 15.4852 17.2307 15.3182 17.2307 14.7339C17.2307 14.1078 16.8759 13.92 16.8759 13.92Z" fill="url(#paint1_linear_242_1064)"/>
<path d="M15.8742 13.92H15.7698C15.7698 13.92 16.0828 14.2122 16.0828 14.7339C16.0828 15.193 15.7698 15.4852 15.7698 15.4852H15.8742C15.8742 15.4852 16.1872 15.2556 16.1872 14.7339C16.1663 14.1704 15.8742 13.92 15.8742 13.92Z" fill="url(#paint2_linear_242_1064)"/>
<path d="M10.6776 13.92H10.782V15.4852H10.6776V13.92Z" fill="url(#paint3_linear_242_1064)"/>
<path d="M9.65505 13.92H9.7594C9.7594 13.92 9.71766 14.3165 9.71766 14.7339C9.71766 15.1095 9.7594 15.4852 9.7594 15.4852H9.65505C9.65505 15.4852 9.61331 15.1095 9.61331 14.7339C9.61331 14.3165 9.65505 13.92 9.65505 13.92Z" fill="url(#paint4_linear_242_1064)"/>
<path d="M8.6533 13.92H8.75765C8.75765 13.92 8.6533 14.3165 8.6533 14.7339C8.6533 15.1095 8.75765 15.4852 8.75765 15.4852H8.6533C8.6533 15.4852 8.54895 15.1095 8.54895 14.7339C8.54895 14.3165 8.6533 13.92 8.6533 13.92Z" fill="url(#paint5_linear_242_1064)"/>
<path d="M7.63068 13.92H7.73502C7.73502 13.92 7.58894 14.3165 7.58894 14.7339C7.58894 15.1095 7.73502 15.4852 7.73502 15.4852H7.63068C7.63068 15.4852 7.48459 15.1095 7.48459 14.7339C7.48459 14.3165 7.63068 13.92 7.63068 13.92Z" fill="url(#paint6_linear_242_1064)"/>
<path d="M6.60808 13.92H6.71243C6.71243 13.92 6.50373 14.2539 6.50373 14.7339C6.50373 15.1513 6.71243 15.4852 6.71243 15.4852H6.60808C6.60808 15.4852 6.39938 15.1513 6.39938 14.7339C6.39938 14.2539 6.60808 13.92 6.60808 13.92Z" fill="url(#paint7_linear_242_1064)"/>
<path d="M5.58547 13.92H5.68982C5.68982 13.92 5.37678 14.2122 5.37678 14.7339C5.37678 15.193 5.68982 15.4852 5.68982 15.4852H5.58547C5.58547 15.4852 5.27243 15.2556 5.27243 14.7339C5.2933 14.1704 5.58547 13.92 5.58547 13.92Z" fill="url(#paint8_linear_242_1064)"/>
<path d="M4.58373 13.92H4.68807C4.68807 13.92 4.33329 14.1704 4.33329 14.7339C4.33329 15.2556 4.68807 15.4852 4.68807 15.4852H4.58373C4.58373 15.4852 4.22894 15.3182 4.22894 14.7339C4.22894 14.1078 4.58373 13.92 4.58373 13.92Z" fill="url(#paint9_linear_242_1064)"/>
<path d="M10.3229 5.96867L16.8342 17.2382C17.1055 17.6974 16.9385 18.2817 16.4794 18.553C16.0203 18.8243 15.4359 18.6574 15.1646 18.1982L8.65331 6.92867C8.38201 6.46954 8.54897 5.88519 9.0081 5.61388C9.46723 5.34258 10.0516 5.50954 10.3229 5.96867Z" fill="white"/>
<path d="M10.1559 6.05219L16.6881 17.3635C16.8968 17.7183 16.7716 18.1983 16.4168 18.407L16.375 18.4278C16.0203 18.6365 15.5403 18.5113 15.3316 18.1565L8.79939 6.82437C8.59069 6.46959 8.71591 5.98959 9.07069 5.78089L9.09156 5.76002C9.46722 5.55132 9.94722 5.67654 10.1559 6.05219Z" fill="url(#paint10_linear_242_1064)"/>
<path d="M8.69504 6.51133L15.5403 18.3861L15.582 18.407L15.6237 18.4278L15.6655 18.4487L8.69504 6.38611V6.51133Z" fill="url(#paint11_linear_242_1064)"/>
<path d="M8.75766 6.11479L15.9159 18.5113H15.9994L8.7994 6.05219L8.77853 6.09392L8.75766 6.11479Z" fill="url(#paint12_linear_242_1064)"/>
<path d="M9.04984 5.80175L16.3542 18.4278L16.4168 18.3861L9.11244 5.76001L9.04984 5.80175Z" fill="url(#paint13_linear_242_1064)"/>
<path d="M9.57157 5.67651L16.709 18.0522L16.6881 18.0939L16.6672 18.1356L9.46722 5.65564H9.50896L9.57157 5.67651Z" fill="url(#paint14_linear_242_1064)"/>
<path d="M9.94721 5.80174L16.7924 17.6557V17.7809L9.82199 5.73914L9.86373 5.76001L9.90547 5.78087L9.94721 5.80174Z" fill="url(#paint15_linear_242_1064)"/>
<path d="M16.4794 16.9878L16.4377 16.9044C16.4377 16.9044 16.3959 17.3217 15.9368 17.6139C15.4985 17.8852 15.102 17.6974 15.102 17.6974L15.1437 17.7809C15.1437 17.7809 15.4777 18.0104 15.9785 17.6974C16.4794 17.4052 16.4794 16.9878 16.4794 16.9878ZM15.9577 16.1113L15.9159 16.0278C15.9159 16.0278 15.8116 16.4452 15.3733 16.6957C14.9768 16.9461 14.5803 16.8209 14.5803 16.8209L14.622 16.9044C14.622 16.9044 14.9768 17.0504 15.4359 16.7791C15.895 16.5078 15.9577 16.1113 15.9577 16.1113Z" fill="#3C98EA"/>
<path d="M15.4568 15.2348L15.415 15.1513C15.415 15.1513 15.2272 15.5061 14.8307 15.7357C14.4759 15.9443 14.0794 15.9444 14.0794 15.9444L14.1211 16.0278C14.1211 16.0278 14.4968 16.0278 14.8724 15.8191C15.2689 15.5896 15.4568 15.2348 15.4568 15.2348Z" fill="#4CA4ED"/>
<path d="M14.9559 14.3583L14.9142 14.2748C14.9142 14.2748 14.6429 14.6296 14.2881 14.8174C13.9542 15.0052 13.5576 15.0678 13.5576 15.0678L13.5994 15.1513C13.5994 15.1513 13.9959 15.0887 14.3298 14.9009C14.6637 14.713 14.9559 14.3583 14.9559 14.3583Z" fill="#4DA7EE"/>
<path d="M12.8898 10.8104L12.9316 10.8939C12.9316 10.8939 12.5768 11.0609 12.222 11.2487C11.8881 11.4365 11.5959 11.6869 11.5959 11.6869L11.5542 11.6035C11.5542 11.6035 11.8672 11.353 12.1803 11.1652C12.535 10.9774 12.8898 10.8104 12.8898 10.8104Z" fill="url(#paint16_linear_242_1064)"/>
<path d="M12.3889 9.9339L12.4307 10.0174C12.4307 10.0174 12.0342 10.1426 11.7002 10.3513C11.3663 10.5391 11.095 10.8313 11.095 10.8313L11.0533 10.7478C11.0533 10.7478 11.3246 10.4556 11.6585 10.2678C11.9924 10.0382 12.3889 9.9339 12.3889 9.9339Z" fill="url(#paint17_linear_242_1064)"/>
<path d="M11.4498 9.24519C11.7211 9.16172 11.9298 9.11998 11.9298 9.11998L11.8881 9.0365C11.8881 9.0365 11.7002 9.05737 11.4915 9.14085C11.3663 9.18259 11.3455 9.28693 11.4498 9.24519Z" fill="#9DD4F7"/>
<path d="M10.8655 7.30432L10.9072 7.3878C10.9072 7.3878 10.5107 7.28345 10.0516 7.53389C9.65503 7.78432 9.57155 8.18084 9.57155 8.18084L9.52982 8.09737C9.52982 8.09737 9.57155 7.74258 10.0098 7.47128C10.4689 7.17911 10.8655 7.30432 10.8655 7.30432Z" fill="url(#paint18_linear_242_1064)"/>
<path d="M10.3646 6.40696L10.4272 6.49043C10.4272 6.49043 10.0098 6.32348 9.52982 6.59478C9.07069 6.88696 9.07069 7.28348 9.07069 7.28348L9.00808 7.2C9.00808 7.2 8.96635 6.84522 9.46721 6.53217C9.98895 6.21913 10.3646 6.40696 10.3646 6.40696Z" fill="url(#paint19_linear_242_1064)"/>
<path d="M8.96633 13.7322C10.782 10.6017 12.8689 6.97042 12.8689 6.97042C13.1402 6.51128 12.9733 5.92694 12.5142 5.65563C12.055 5.38433 11.4707 5.55128 11.1994 6.01042C11.1994 6.01042 8.65329 10.4348 6.73329 13.7322H8.96633ZM7.83938 15.6522C6.96286 17.1548 6.35764 18.24 6.35764 18.24C6.08633 18.6991 5.50199 18.8661 5.04286 18.5948C4.58373 18.3235 4.41677 17.7391 4.68807 17.28C4.68807 17.28 5.04286 16.633 5.60633 15.673C6.3159 15.6522 7.60981 15.6522 7.83938 15.6522Z" fill="white"/>
<path d="M8.73679 13.7322C10.5733 10.56 12.702 6.86612 12.702 6.86612C12.9107 6.51134 12.7855 6.03134 12.4307 5.82264L12.4098 5.80177C12.055 5.59307 11.575 5.71829 11.3664 6.07307C11.3664 6.07307 8.86201 10.4139 6.94201 13.7322H8.73679ZM7.6307 15.6522C6.79592 17.1131 6.1907 18.1566 6.1907 18.1566C5.98201 18.5113 5.52288 18.6366 5.14722 18.4279H5.10548C4.7507 18.2192 4.62548 17.76 4.83418 17.3844C4.83418 17.3844 5.2307 16.6957 5.83592 15.6522H7.6307Z" fill="url(#paint20_linear_242_1064)"/>
<path d="M8.67417 13.7321L12.8272 6.55301V6.4278C12.8272 6.4278 10.5316 10.4139 8.61156 13.7321H8.67417ZM7.54721 15.6521L5.96112 18.4069L5.89852 18.4487L5.83591 18.4695C5.83591 18.4695 6.54547 17.2382 7.46373 15.6521H7.54721Z" fill="url(#paint21_linear_242_1064)"/>
<path d="M8.36111 13.7322L12.7437 6.15654L12.7229 6.1148L12.702 6.07306C12.702 6.07306 10.302 10.2261 8.29851 13.7113L8.36111 13.7322ZM7.25503 15.6522L5.58546 18.5322H5.50198C5.50198 18.5322 6.21155 17.3009 7.17155 15.6313C7.21329 15.6522 7.25503 15.6522 7.25503 15.6522Z" fill="url(#paint22_linear_242_1064)"/>
<path d="M7.90199 13.7322C9.96808 10.1635 12.4516 5.8435 12.4516 5.8435L12.3889 5.80176L7.79764 13.7322H7.90199ZM6.77503 15.6731C5.85677 17.28 5.16808 18.4696 5.16808 18.4696L5.10547 18.4278C5.10547 18.4278 5.77329 17.2591 6.69156 15.6731C6.73329 15.6522 6.71243 15.6522 6.77503 15.6731Z" fill="url(#paint23_linear_242_1064)"/>
<path d="M7.40112 13.7322C9.4672 10.1635 12.0342 5.69739 12.0342 5.69739H11.9507C11.9507 5.69739 9.38372 10.1426 7.31764 13.7322H7.40112ZM6.19068 15.6522C5.3559 17.0922 4.79242 18.073 4.79242 18.073L4.81329 18.1148L4.83416 18.1565C4.83416 18.1565 5.43938 17.113 6.29503 15.6522H6.19068Z" fill="url(#paint24_linear_242_1064)"/>
<path d="M7.08809 13.7322L11.6794 5.78088L11.6377 5.80175L11.5959 5.82262L11.575 5.84349C11.575 5.84349 9.02896 10.247 7.02548 13.7322H7.08809ZM5.982 15.6522C5.25157 16.9252 4.72983 17.8226 4.72983 17.8226V17.6557C4.72983 17.6557 5.18896 16.8626 5.89852 15.6313C5.94026 15.6522 5.94026 15.6522 5.982 15.6522Z" fill="url(#paint25_linear_242_1064)"/>
<path d="M11.1576 6.40693L11.1159 6.49041C11.1159 6.49041 11.4916 6.30258 11.9924 6.57389C12.4516 6.82432 12.4724 7.26258 12.4724 7.26258L12.5142 7.1791C12.5142 7.1791 12.5559 6.78258 12.0342 6.49041C11.5124 6.19823 11.1576 6.40693 11.1576 6.40693Z" fill="url(#paint26_linear_242_1064)"/>
<path d="M10.6568 7.30435L10.6151 7.38783C10.6151 7.38783 11.0324 7.26261 11.4707 7.51305C11.8881 7.74261 11.9716 8.13914 11.9716 8.13914L12.0133 8.05566C12.0133 8.05566 11.9716 7.68001 11.5124 7.42957C11.0324 7.15827 10.6568 7.30435 10.6568 7.30435Z" fill="url(#paint27_linear_242_1064)"/>
<path d="M10.135 8.18085L10.0933 8.26433C10.0933 8.26433 10.4689 8.24346 10.8863 8.49389C11.262 8.70259 11.4498 9.0365 11.4498 9.0365L11.4916 8.95302C11.4916 8.95302 11.3037 8.61911 10.9281 8.41041C10.5316 8.18085 10.135 8.18085 10.135 8.18085Z" fill="url(#paint28_linear_242_1064)"/>
<path d="M9.63418 9.07825L9.59244 9.16173C9.59244 9.16173 10.0098 9.22433 10.3646 9.43303C10.6985 9.62086 10.949 9.9339 10.949 9.9339L10.9907 9.85042C10.9907 9.85042 10.7403 9.53738 10.4064 9.34955C10.0516 9.14086 9.63418 9.07825 9.63418 9.07825Z" fill="url(#paint29_linear_242_1064)"/>
<path d="M9.11242 9.95477L9.07068 10.0383C9.07068 10.0383 9.4672 10.1426 9.82198 10.3513C10.1559 10.5391 10.4272 10.8104 10.4272 10.8104L10.4689 10.7269C10.4689 10.7269 10.1976 10.4556 9.86372 10.2678C9.52981 10.08 9.11242 9.95477 9.11242 9.95477Z" fill="url(#paint30_linear_242_1064)"/>
<path d="M8.61156 10.8313L8.54895 10.9148C8.54895 10.9148 8.9246 11.0609 9.27938 11.2696C9.6133 11.4574 9.90547 11.687 9.90547 11.687L9.94721 11.6035C9.94721 11.6035 9.65504 11.3739 9.32112 11.1861C8.98721 10.9983 8.61156 10.8313 8.61156 10.8313Z" fill="url(#paint31_linear_242_1064)"/>
<path d="M8.0481 11.8122L8.08983 11.7287L9.44636 12.5009L9.40462 12.5844L8.0481 11.8122Z" fill="url(#paint32_linear_242_1064)"/>
<path d="M7.54721 12.7096L7.58895 12.6261C7.58895 12.6261 7.92286 12.8765 8.27765 13.0644C8.61156 13.2522 8.94547 13.3983 8.94547 13.3983L8.90373 13.4609C8.90373 13.4609 8.54895 13.3148 8.21504 13.127C7.86025 12.9391 7.54721 12.7096 7.54721 12.7096Z" fill="url(#paint33_linear_242_1064)"/>
<path d="M7.21331 13.7322C7.10896 13.6487 7.04636 13.5861 7.04636 13.5861L7.0881 13.5026C7.0881 13.5026 7.21331 13.607 7.38027 13.7322H7.21331Z" fill="#73B9F1"/>
<path d="M6.39939 15.6522C6.48287 15.7148 6.56634 15.7774 6.67069 15.84C7.04634 16.0487 7.422 16.0278 7.422 16.0278L7.38026 16.1113C7.38026 16.1113 7.0046 16.1322 6.62895 15.9235C6.48287 15.84 6.35765 15.7356 6.27417 15.6522H6.39939Z" fill="url(#paint34_linear_242_1064)"/>
<path d="M5.50198 16.2365L5.54372 16.153C5.54372 16.153 5.64807 16.5704 6.1072 16.8208C6.52459 17.0504 6.90024 16.9252 6.90024 16.9252L6.85851 17.0087C6.85851 17.0087 6.52459 17.1548 6.06546 16.9043C5.58546 16.633 5.50198 16.2365 5.50198 16.2365Z" fill="url(#paint35_linear_242_1064)"/>
<path d="M4.98026 17.1339L5.02199 17.0504C5.02199 17.0504 5.06373 17.4887 5.5646 17.76C6.02373 18.0104 6.37852 17.8226 6.37852 17.8226L6.31591 17.9061C6.31591 17.9061 6.00286 18.1356 5.50199 17.8435C4.98026 17.5513 4.98026 17.1339 4.98026 17.1339Z" fill="url(#paint36_linear_242_1064)"/>
<path d="M17.022 1.73218L21.1959 3.71479V9.70435C19.7559 9.01566 10.1142 4.42435 10.1142 4.42435C10.1142 4.42435 10.782 3.02609 11.4081 1.73218H17.022Z" fill="url(#paint37_radial_242_1064)"/>
<path d="M6.67068 21.8504C6.60807 21.9756 6.50373 22.1217 6.5246 22.3513C6.54547 23.2069 7.94373 24 8.75764 24C9.32112 24 9.50894 23.7704 9.71764 23.353C9.92633 22.9356 6.90025 21.3496 6.67068 21.8504Z" fill="url(#paint38_radial_242_1064)"/>
<path d="M16.2916 4.09045C16.2916 4.09045 18.4411 4.61219 18.6081 4.75828C18.775 4.90437 18.3368 5.73915 18.2533 5.86437C17.5646 6.69915 15.415 11.3113 15.415 11.3113L13.4324 10.1844C13.4324 10.1844 15.2063 6.88698 15.8324 5.71828C16.229 4.92524 16.2916 4.09045 16.2916 4.09045Z" fill="url(#paint39_linear_242_1064)"/>
<path d="M21.2585 3.0052C21.6342 3.2765 22.135 3.21389 22.5316 3.15129C22.8029 3.10955 22.3855 3.50607 21.9264 4.42433C21.4672 5.34259 21.4881 5.4052 21.4255 5.34259C21.3629 5.27998 19.2968 4.11129 19.3594 4.00694C19.4429 3.90259 19.7768 1.62781 19.9437 1.69042C20.549 1.8365 20.6533 2.56694 21.2585 3.0052Z" fill="url(#paint40_linear_242_1064)"/>
<path d="M18.0446 5.57216C18.1907 5.34259 18.8585 3.92346 19.9229 3.92346C20.4029 3.92346 21.3211 5.1339 21.4046 5.30085C21.4672 5.44694 21.2585 6.03129 21.1542 5.75998C21.029 5.44694 20.5072 4.77911 19.9437 4.77911C19.3803 4.77911 18.6081 5.42607 18.4203 5.65564C18.2324 5.86433 17.8985 5.80172 18.0446 5.57216Z" fill="url(#paint41_linear_242_1064)"/>
<path d="M18.0029 5.48871C18.1072 5.32175 18.5872 4.59132 18.8168 4.36175C19.0463 4.13219 19.6307 3.52697 20.1316 3.44349C20.6324 3.36002 21.1542 4.38262 20.9872 4.59132C20.862 4.73741 20.6533 4.57045 20.4029 4.36175C20.1524 4.17393 19.9855 3.79828 19.1924 4.40349C18.9211 4.61219 18.6498 4.77915 18.0237 5.67654C17.8568 5.9061 17.8985 5.65567 18.0029 5.48871Z" fill="url(#paint42_linear_242_1064)"/>
<path d="M15.415 11.5826C15.4985 11.4156 15.6029 11.1652 15.3733 10.9774C15.1229 10.7896 13.9542 10.1635 13.7455 10.1217C13.5368 10.08 13.3698 10.1217 13.2863 10.2678C13.2029 10.4139 6.79591 21.3913 6.67069 21.7043C6.54547 22.0174 6.5246 22.2469 6.71243 22.3096C6.90025 22.3722 9.04982 23.3948 9.25851 23.6243C9.46721 23.8539 9.57156 23.6035 9.65504 23.4782C10.0516 22.9774 15.3107 11.7496 15.415 11.5826Z" fill="url(#paint43_linear_242_1064)"/>
<path d="M18.1489 5.44696C18.2533 5.30087 18.5037 4.88348 18.8168 4.50783C19.0255 4.25739 20.1524 3.71478 20.4029 2.83826C20.5489 2.35826 20.3194 1.87826 20.0063 1.66957C18.942 1.02261 17.1055 0 14.4133 0C12.5976 0 11.8255 0.605217 11.8255 0.605217H12.7437L15.9368 1.85739L16.3333 3.52696C16.3333 3.52696 16.375 4.09043 16.1872 4.73739C16.062 5.25913 16.0203 5.57217 15.8324 6.09391C15.9785 6.15652 16.3124 5.92696 16.6881 6.0313C17.022 6.11478 17.2307 6.57391 17.4603 6.30261C17.8568 5.78087 17.982 5.67652 18.1489 5.44696Z" fill="url(#paint44_linear_242_1064)"/>
<path d="M16.2707 4.15304C16.1037 2.60869 15.7281 1.14782 11.8046 1.16869C12.055 0.918253 12.6602 0.667818 12.6602 0.667818L11.8046 0.605209C11.8046 0.605209 11.9298 0.500861 12.1802 0.479992C14.4759 0.292166 16.5211 0.772166 16.375 3.75651C16.3542 4.23651 16.3124 4.44521 16.2707 4.15304Z" fill="url(#paint45_linear_242_1064)"/>
<path d="M22.5733 3.15131L23.7211 3.73565C23.7211 3.73565 23.2828 4.32 22.9281 4.98783C22.5524 5.69739 22.302 6.46957 22.302 6.46957L21.1959 5.80174C21.1959 5.80174 21.4672 5.05044 21.8637 4.32C22.1768 3.71478 22.5733 3.15131 22.5733 3.15131Z" fill="url(#paint46_linear_242_1064)"/>
<path d="M23.7211 3.73562C23.8046 3.77736 23.5333 4.42432 23.1368 5.17562C22.7403 5.92693 22.3646 6.51128 22.302 6.46954C22.2185 6.4278 22.4898 5.78084 22.8863 5.02954C23.262 4.27823 23.6376 3.69389 23.7211 3.73562Z" fill="#BFC0D0"/>
<defs>
<linearGradient id="paint0_linear_242_1064" x1="1046.81" y1="2096.31" x2="1046.81" y2="1.39829" gradientUnits="userSpaceOnUse">
<stop stop-color="#1578E4"/>
<stop offset="1" stop-color="#00C3F2"/>
</linearGradient>
<linearGradient id="paint1_linear_242_1064" x1="40.5002" y1="169.732" x2="40.5002" y2="13.5861" gradientUnits="userSpaceOnUse">
<stop stop-color="#1492E7"/>
<stop offset="1" stop-color="#DBEDFB"/>
</linearGradient>
<linearGradient id="paint2_linear_242_1064" x1="35.4289" y1="169.732" x2="35.4289" y2="13.5861" gradientUnits="userSpaceOnUse">
<stop stop-color="#1492E7"/>
<stop offset="1" stop-color="#DBEDFB"/>
</linearGradient>
<linearGradient id="paint3_linear_242_1064" x1="15.8638" y1="169.732" x2="15.8638" y2="13.5861" gradientUnits="userSpaceOnUse">
<stop stop-color="#1492E7"/>
<stop offset="1" stop-color="#DBEDFB"/>
</linearGradient>
<linearGradient id="paint4_linear_242_1064" x1="16.9469" y1="169.732" x2="16.9469" y2="13.5861" gradientUnits="userSpaceOnUse">
<stop stop-color="#1492E7"/>
<stop offset="1" stop-color="#DBEDFB"/>
</linearGradient>
<linearGradient id="paint5_linear_242_1064" x1="18.1072" y1="169.732" x2="18.1072" y2="13.5861" gradientUnits="userSpaceOnUse">
<stop stop-color="#1492E7"/>
<stop offset="1" stop-color="#DBEDFB"/>
</linearGradient>
<linearGradient id="paint6_linear_242_1064" x1="19.2342" y1="169.732" x2="19.2342" y2="13.5861" gradientUnits="userSpaceOnUse">
<stop stop-color="#1492E7"/>
<stop offset="1" stop-color="#DBEDFB"/>
</linearGradient>
<linearGradient id="paint7_linear_242_1064" x1="22.4272" y1="169.732" x2="22.4272" y2="13.5861" gradientUnits="userSpaceOnUse">
<stop stop-color="#1492E7"/>
<stop offset="1" stop-color="#DBEDFB"/>
</linearGradient>
<linearGradient id="paint8_linear_242_1064" x1="27.2272" y1="169.732" x2="27.2272" y2="13.5861" gradientUnits="userSpaceOnUse">
<stop stop-color="#1492E7"/>
<stop offset="1" stop-color="#DBEDFB"/>
</linearGradient>
<linearGradient id="paint9_linear_242_1064" x1="26.2881" y1="169.732" x2="26.2881" y2="13.5861" gradientUnits="userSpaceOnUse">
<stop stop-color="#1492E7"/>
<stop offset="1" stop-color="#DBEDFB"/>
</linearGradient>
<linearGradient id="paint10_linear_242_1064" x1="412.842" y1="1291.89" x2="412.842" y2="6.15486" gradientUnits="userSpaceOnUse">
<stop stop-color="#1285E7"/>
<stop offset="1" stop-color="#00B5EF"/>
</linearGradient>
<linearGradient id="paint11_linear_242_1064" x1="472.646" y1="1214.27" x2="-108.032" y2="208.494" gradientUnits="userSpaceOnUse">
<stop stop-color="#2B90E7"/>
<stop offset="1" stop-color="#00B6EF"/>
</linearGradient>
<linearGradient id="paint12_linear_242_1064" x1="492.276" y1="1254.62" x2="-108.359" y2="214.292" gradientUnits="userSpaceOnUse">
<stop stop-color="#3795EA"/>
<stop offset="1" stop-color="#49C4F2"/>
</linearGradient>
<linearGradient id="paint13_linear_242_1064" x1="500.744" y1="1271.19" x2="-108.038" y2="216.745" gradientUnits="userSpaceOnUse">
<stop stop-color="#3696EA"/>
<stop offset="1" stop-color="#90D9F6"/>
</linearGradient>
<linearGradient id="paint14_linear_242_1064" x1="493.346" y1="1252.24" x2="-107.557" y2="211.445" gradientUnits="userSpaceOnUse">
<stop stop-color="#3097EA"/>
<stop offset="1" stop-color="#B5E5F9"/>
</linearGradient>
<linearGradient id="paint15_linear_242_1064" x1="475.705" y1="1209.62" x2="-104.459" y2="204.749" gradientUnits="userSpaceOnUse">
<stop stop-color="#3A98EA"/>
<stop offset="1" stop-color="#BCE7FA"/>
</linearGradient>
<linearGradient id="paint16_linear_242_1064" x1="13.2446" y1="70.0686" x2="128.29" y2="3.6456" gradientUnits="userSpaceOnUse">
<stop stop-color="#00A4EC"/>
<stop offset="1" stop-color="#B9DFF6"/>
</linearGradient>
<linearGradient id="paint17_linear_242_1064" x1="10.782" y1="69.4732" x2="126.464" y2="2.67218" gradientUnits="userSpaceOnUse">
<stop stop-color="#00A4EC"/>
<stop offset="1" stop-color="#B9DFF6"/>
</linearGradient>
<linearGradient id="paint18_linear_242_1064" x1="3.89503" y1="63.9496" x2="119.04" y2="-2.51749" gradientUnits="userSpaceOnUse">
<stop stop-color="#00B4EF"/>
<stop offset="1" stop-color="#C3E9FA"/>
</linearGradient>
<linearGradient id="paint19_linear_242_1064" x1="3.33241" y1="64.7669" x2="119.263" y2="-2.16732" gradientUnits="userSpaceOnUse">
<stop stop-color="#00B4EF"/>
<stop offset="1" stop-color="#C3E9FA"/>
</linearGradient>
<linearGradient id="paint20_linear_242_1064" x1="408.585" y1="1290.98" x2="408.585" y2="5.26744" gradientUnits="userSpaceOnUse">
<stop stop-color="#1285E7"/>
<stop offset="1" stop-color="#00B5EF"/>
</linearGradient>
<linearGradient id="paint21_linear_242_1064" x1="238.842" y1="1213.34" x2="820.066" y2="206.644" gradientUnits="userSpaceOnUse">
<stop stop-color="#3194E9"/>
<stop offset="1" stop-color="#71CFF4"/>
</linearGradient>
<linearGradient id="paint22_linear_242_1064" x1="246.411" y1="1255.78" x2="847.119" y2="215.316" gradientUnits="userSpaceOnUse">
<stop stop-color="#5AA6EC"/>
<stop offset="1" stop-color="#A2DEF8"/>
</linearGradient>
<linearGradient id="paint23_linear_242_1064" x1="249.719" y1="1270.18" x2="858.153" y2="216.348" gradientUnits="userSpaceOnUse">
<stop stop-color="#66ABEE"/>
<stop offset="1" stop-color="#BEE8FA"/>
</linearGradient>
<linearGradient id="paint24_linear_242_1064" x1="245.032" y1="1251.23" x2="846.138" y2="210.091" gradientUnits="userSpaceOnUse">
<stop stop-color="#7BB6F0"/>
<stop offset="1" stop-color="#B1E3F9"/>
</linearGradient>
<linearGradient id="paint25_linear_242_1064" x1="235.472" y1="1209.37" x2="815.585" y2="204.577" gradientUnits="userSpaceOnUse">
<stop stop-color="#5AA6EC"/>
<stop offset="1" stop-color="#AFE3F9"/>
</linearGradient>
<linearGradient id="paint26_linear_242_1064" x1="22.8446" y1="30.8077" x2="139.069" y2="97.9113" gradientUnits="userSpaceOnUse">
<stop stop-color="#C1E7FA"/>
<stop offset="1" stop-color="#89D4F5"/>
</linearGradient>
<linearGradient id="paint27_linear_242_1064" x1="20.1316" y1="31.5928" x2="134.705" y2="97.7258" gradientUnits="userSpaceOnUse">
<stop stop-color="#C1E7FA"/>
<stop offset="1" stop-color="#89D4F5"/>
</linearGradient>
<linearGradient id="paint28_linear_242_1064" x1="17.8776" y1="33.4187" x2="131.879" y2="99.2313" gradientUnits="userSpaceOnUse">
<stop stop-color="#C1E7FA"/>
<stop offset="1" stop-color="#89D4F5"/>
</linearGradient>
<linearGradient id="paint29_linear_242_1064" x1="15.0394" y1="34.7068" x2="129.032" y2="100.532" gradientUnits="userSpaceOnUse">
<stop stop-color="#B0DFF8"/>
<stop offset="1" stop-color="#52BDF2"/>
</linearGradient>
<linearGradient id="paint30_linear_242_1064" x1="14.2881" y1="36.7478" x2="128.326" y2="102.579" gradientUnits="userSpaceOnUse">
<stop stop-color="#B4DEF8"/>
<stop offset="1" stop-color="#4EB5F0"/>
</linearGradient>
<linearGradient id="paint31_linear_242_1064" x1="13.5576" y1="38.7888" x2="127.559" y2="104.601" gradientUnits="userSpaceOnUse">
<stop stop-color="#B4DEF8"/>
<stop offset="1" stop-color="#4EB5F0"/>
</linearGradient>
<linearGradient id="paint32_linear_242_1064" x1="10.949" y1="39.9441" x2="124.928" y2="105.754" gradientUnits="userSpaceOnUse">
<stop stop-color="#B5DDF8"/>
<stop offset="1" stop-color="#46AEEE"/>
</linearGradient>
<linearGradient id="paint33_linear_242_1064" x1="8.27765" y1="41.1247" x2="121.683" y2="106.601" gradientUnits="userSpaceOnUse">
<stop stop-color="#96CEF4"/>
<stop offset="1" stop-color="#46AAEE"/>
</linearGradient>
<linearGradient id="paint34_linear_242_1064" x1="8.75765" y1="33.7288" x2="90.5742" y2="80.9688" gradientUnits="userSpaceOnUse">
<stop stop-color="#8FC1F2"/>
<stop offset="1" stop-color="#3193EA"/>
</linearGradient>
<linearGradient id="paint35_linear_242_1064" x1="-0.0493199" y1="49.5664" x2="115.25" y2="116.136" gradientUnits="userSpaceOnUse">
<stop stop-color="#8FC1F2"/>
<stop offset="1" stop-color="#3193EA"/>
</linearGradient>
<linearGradient id="paint36_linear_242_1064" x1="-0.779746" y1="50.9482" x2="115.876" y2="118.311" gradientUnits="userSpaceOnUse">
<stop stop-color="#8FC1F2"/>
<stop offset="1" stop-color="#3193EA"/>
</linearGradient>
<radialGradient id="paint37_radial_242_1064" cx="0" cy="0" r="1" gradientUnits="userSpaceOnUse" gradientTransform="translate(-378.641 534.498) rotate(109.896) scale(445.938 255.705)">
<stop/>
<stop offset="1" stop-opacity="0"/>
</radialGradient>
<radialGradient id="paint38_radial_242_1064" cx="0" cy="0" r="1" gradientUnits="userSpaceOnUse" gradientTransform="translate(63.6565 185.524) rotate(34.9811) scale(180.7 150.464)">
<stop offset="0.417" stop-color="#0C0C12"/>
<stop offset="1" stop-color="#3D4651"/>
</radialGradient>
<linearGradient id="paint39_linear_242_1064" x1="223.707" y1="297.809" x2="350.027" y2="362.172" gradientUnits="userSpaceOnUse">
<stop stop-color="#344351"/>
<stop offset="0.1" stop-color="#9697A0"/>
<stop offset="0.181" stop-color="#8B8C95"/>
<stop offset="0.351" stop-color="#787A83"/>
<stop offset="0.47" stop-color="#71747D"/>
<stop offset="0.591" stop-color="#777982"/>
<stop offset="0.749" stop-color="#87898F"/>
<stop offset="0.8" stop-color="#8E8F94"/>
<stop offset="0.849" stop-color="#3D3B42"/>
<stop offset="0.9" stop-color="#606E84"/>
</linearGradient>
<linearGradient id="paint40_linear_242_1064" x1="261.007" y1="328.571" x2="48.2234" y2="41.0303" gradientUnits="userSpaceOnUse">
<stop offset="0.27" stop-color="#262B33"/>
<stop offset="0.45" stop-color="#74747E"/>
<stop offset="0.54" stop-color="#B0B0BC"/>
<stop offset="0.73" stop-color="#74747E"/>
</linearGradient>
<linearGradient id="paint41_linear_242_1064" x1="12.047" y1="109.458" x2="347.83" y2="66.0849" gradientUnits="userSpaceOnUse">
<stop offset="0.14" stop-color="#606E84"/>
<stop offset="0.4" stop-color="#9899A5"/>
<stop offset="0.73" stop-color="#475768"/>
<stop offset="0.92" stop-color="#262B33"/>
</linearGradient>
<linearGradient id="paint42_linear_242_1064" x1="179.989" y1="169.804" x2="161.025" y2="62.2631" gradientUnits="userSpaceOnUse">
<stop stop-color="#101215" stop-opacity="0.1"/>
<stop offset="0.46" stop-color="#101215" stop-opacity="0.7"/>
<stop offset="0.7" stop-color="#474951"/>
<stop offset="0.91" stop-color="#7B7D88"/>
</linearGradient>
<linearGradient id="paint43_linear_242_1064" x1="387.612" y1="590.166" x2="558.52" y2="674.262" gradientUnits="userSpaceOnUse">
<stop offset="0.115" stop-color="#2C3952"/>
<stop offset="0.374" stop-color="#3D414E"/>
<stop offset="0.55" stop-color="#474A54"/>
<stop offset="0.754" stop-color="#4E5057"/>
<stop offset="0.892" stop-color="#323945"/>
<stop offset="1" stop-color="#143052"/>
</linearGradient>
<linearGradient id="paint44_linear_242_1064" x1="268.688" y1="443.926" x2="421.397" y2="108.86" gradientUnits="userSpaceOnUse">
<stop offset="0.118" stop-color="#6D7078" stop-opacity="0"/>
<stop offset="0.2" stop-color="#6D7078" stop-opacity="0.7"/>
<stop offset="0.34" stop-color="#35363A"/>
<stop offset="0.374" stop-color="#1D1F22"/>
<stop offset="0.4" stop-color="#101215"/>
<stop offset="0.5" stop-color="#16171A"/>
<stop offset="0.56" stop-color="#292A2E"/>
<stop offset="0.688" stop-color="#4B4D51"/>
<stop offset="0.807" stop-color="#63666B"/>
<stop offset="0.915" stop-color="#72757B"/>
<stop offset="1" stop-color="#777A80"/>
</linearGradient>
<linearGradient id="paint45_linear_242_1064" x1="11.0533" y1="192.602" x2="469.391" y2="192.602" gradientUnits="userSpaceOnUse">
<stop stop-color="#4A4D56"/>
<stop offset="1" stop-color="#29292D"/>
</linearGradient>
<linearGradient id="paint46_linear_242_1064" x1="101.312" y1="298.581" x2="239.031" y2="60.0423" gradientUnits="userSpaceOnUse">
<stop stop-color="#858997"/>
<stop offset="0.23" stop-color="#244668"/>
<stop offset="0.282" stop-color="#1A3249"/>
<stop offset="0.4" stop-color="#040506"/>
<stop offset="0.464" stop-color="#313236"/>
<stop offset="0.546" stop-color="#65656E"/>
<stop offset="0.607" stop-color="#868691"/>
<stop offset="0.64" stop-color="#92929E"/>
</linearGradient>
</defs>
</svg>
